M48
; DRILL file {KiCad 9.0.2} date 2025-06-30T15:48:06+0200
; FORMAT={-:-/ absolute / inch / decimal}
; #@! TF.CreationDate,2025-06-30T15:48:06+02:00
; #@! TF.GenerationSoftware,Kicad,Pcbnew,9.0.2
; #@! TF.FileFunction,Plated,1,2,PTH
FMAT,2
INCH
; #@! TA.AperFunction,Plated,PTH,ComponentDrill
T1C0.0295
; #@! TA.AperFunction,Plated,PTH,ComponentDrill
T2C0.0315
; #@! TA.AperFunction,Plated,PTH,ComponentDrill
T3C0.0394
%
G90
G05
T1
X2.5984Y3.4252
X2.5984Y3.3465
X2.5984Y3.2677
X2.5984Y3.189
X5.1772Y1.4173
X5.1772Y1.3386
X5.1772Y1.2598
X5.1772Y1.1811
X5.8858Y1.3976
X5.8858Y1.3189
X5.8858Y1.2402
X5.8858Y1.1614
X7.5984Y1.7717
X7.5984Y1.6929
X7.5984Y1.6142
X7.5984Y1.5354
T2
X2.2146Y1.9358
X2.3146Y1.9358
X2.7165Y1.1449
X2.7165Y0.7449
X2.8472Y2.5394
X2.9528Y1.1449
X2.9528Y0.7449
X3.2472Y2.5394
X4.437Y1.6205
X4.437Y1.2205
X4.9606Y1.5811
X4.9606Y1.1811
X4.9606Y0.7543
X4.9606Y0.3543
X5.2559Y0.7543
X5.2559Y0.3543
X5.2772Y2.5433
X5.5512Y1.5811
X5.5512Y1.1811
X5.6772Y2.5433
X6.2795Y2.5457
X6.2795Y2.1457
X6.2795Y1.5811
X6.2795Y1.1811
X6.7717Y1.5811
X6.7717Y1.1811
X6.9685Y1.5811
X6.9685Y1.1811
T3
X0.2953Y2.0374
X0.2953Y1.7421
X0.461Y0.9252
X0.4787Y2.0406
X0.4787Y1.9406
X0.4787Y1.8406
X0.4787Y1.7406
X0.561Y0.9252
X0.661Y0.9252
X0.761Y0.9252
X0.861Y0.9252
X1.6339Y2.1406
X1.6339Y2.0406
X1.6339Y1.9406
X1.6339Y1.8406
X1.6339Y1.7406
X2.815Y3.3366
X2.815Y3.0413
X3.2274Y1.6095
X3.2274Y1.5095
X3.2274Y1.4095
X3.2274Y1.3095
X3.2274Y1.2095
X3.2274Y1.1095
X3.2274Y1.0095
X3.2274Y0.9095
X3.2274Y0.8095
X3.2274Y0.7095
X3.2465Y3.3925
X3.2465Y2.9988
X3.3465Y3.3925
X3.3465Y2.9988
X3.9803Y2.7756
X3.9803Y2.6756
X3.9803Y2.5756
X3.9803Y2.4756
X4.1329Y1.6095
X4.1329Y1.5095
X4.1329Y1.4095
X4.1329Y1.3095
X4.1329Y1.2095
X4.1329Y1.1095
X4.1329Y1.0095
X4.1329Y0.9095
X4.1329Y0.8095
X4.1329Y0.7095
X4.2913Y2.7756
X4.2913Y2.6756
X4.2913Y2.5756
X4.2913Y2.4756
X4.4055Y1.0992
X4.4055Y0.8039
X4.5709Y1.4004
X4.5709Y1.3004
X4.5709Y1.2004
X4.5709Y1.1004
X4.5709Y1.0004
X4.6181Y2.7756
X4.6181Y2.6756
X4.6181Y2.5756
X4.6181Y2.4756
X4.811Y1.1004
X4.811Y0.8051
X4.9772Y3.3925
X4.9772Y2.9988
X5.0772Y3.3925
X5.0772Y2.9988
X5.4134Y1.1004
X5.4134Y0.8051
X5.7433Y2.8839
X5.7677Y2.3374
X5.7677Y2.2374
X5.7677Y2.1374
X5.7677Y2.0374
X5.7677Y1.9374
X5.7677Y1.8374
X5.8433Y2.8839
X5.9433Y2.8839
X6.0433Y2.8839
X6.1299Y1.1004
X6.1299Y0.8051
X6.1433Y2.8839
X6.2433Y2.8839
X6.3433Y2.8839
X6.4321Y3.7904
X6.4433Y2.8839
X6.5157Y1.5988
X6.5157Y1.4988
X6.5157Y1.3988
X6.5157Y1.2988
X6.5157Y1.1988
X6.5157Y1.0988
X6.5157Y0.9988
X6.5321Y3.7904
X6.5433Y2.8839
X6.6321Y3.7904
X6.6433Y2.8839
X6.7321Y3.7904
X6.8321Y3.7904
X6.8494Y0.6807
X6.8494Y0.5807
X6.9321Y3.7904
X7.0321Y3.7904
X7.1321Y3.7904
X7.2047Y1.6992
X7.2047Y1.5992
X7.2047Y1.4992
X7.2047Y1.3992
X7.2047Y1.2992
X7.2047Y1.1992
X7.2047Y1.0992
M30
