%TF.GenerationSoftware,KiCad,Pcbnew,9.0.2*%
%TF.CreationDate,2025-06-30T15:48:06+02:00*%
%TF.ProjectId,Raumqualitaet,5261756d-7175-4616-9c69-746165742e6b,rev?*%
%TF.SameCoordinates,PX2e40d20PY916f720*%
%TF.FileFunction,Legend,Top*%
%TF.FilePolarity,Positive*%
%FSLAX46Y46*%
G04 Gerber Fmt 4.6, Leading zero omitted, Abs format (unit mm)*
G04 Created by KiCad (PCBNEW 9.0.2) date 2025-06-30 15:48:06*
%MOMM*%
%LPD*%
G01*
G04 APERTURE LIST*
G04 Aperture macros list*
%AMRoundRect*
0 Rectangle with rounded corners*
0 $1 Rounding radius*
0 $2 $3 $4 $5 $6 $7 $8 $9 X,Y pos of 4 corners*
0 Add a 4 corners polygon primitive as box body*
4,1,4,$2,$3,$4,$5,$6,$7,$8,$9,$2,$3,0*
0 Add four circle primitives for the rounded corners*
1,1,$1+$1,$2,$3*
1,1,$1+$1,$4,$5*
1,1,$1+$1,$6,$7*
1,1,$1+$1,$8,$9*
0 Add four rect primitives between the rounded corners*
20,1,$1+$1,$2,$3,$4,$5,0*
20,1,$1+$1,$4,$5,$6,$7,0*
20,1,$1+$1,$6,$7,$8,$9,0*
20,1,$1+$1,$8,$9,$2,$3,0*%
G04 Aperture macros list end*
%ADD10C,0.150000*%
%ADD11C,0.100000*%
%ADD12C,0.120000*%
%ADD13C,2.000000*%
%ADD14RoundRect,0.250000X-0.625000X0.350000X-0.625000X-0.350000X0.625000X-0.350000X0.625000X0.350000X0*%
%ADD15O,1.750000X1.200000*%
%ADD16C,1.600000*%
%ADD17O,1.600000X1.600000*%
%ADD18C,2.200000*%
%ADD19R,1.700000X1.700000*%
%ADD20O,1.700000X1.700000*%
%ADD21C,1.400000*%
%ADD22C,1.700000*%
%ADD23RoundRect,0.250000X0.625000X-0.350000X0.625000X0.350000X-0.625000X0.350000X-0.625000X-0.350000X0*%
G04 APERTURE END LIST*
D10*
X74359580Y80833334D02*
X74407200Y80785715D01*
X74407200Y80785715D02*
X74454819Y80642858D01*
X74454819Y80642858D02*
X74454819Y80547620D01*
X74454819Y80547620D02*
X74407200Y80404763D01*
X74407200Y80404763D02*
X74311961Y80309525D01*
X74311961Y80309525D02*
X74216723Y80261906D01*
X74216723Y80261906D02*
X74026247Y80214287D01*
X74026247Y80214287D02*
X73883390Y80214287D01*
X73883390Y80214287D02*
X73692914Y80261906D01*
X73692914Y80261906D02*
X73597676Y80309525D01*
X73597676Y80309525D02*
X73502438Y80404763D01*
X73502438Y80404763D02*
X73454819Y80547620D01*
X73454819Y80547620D02*
X73454819Y80642858D01*
X73454819Y80642858D02*
X73502438Y80785715D01*
X73502438Y80785715D02*
X73550057Y80833334D01*
X73788152Y81690477D02*
X74454819Y81690477D01*
X73407200Y81452382D02*
X74121485Y81214287D01*
X74121485Y81214287D02*
X74121485Y81833334D01*
X151854819Y31261906D02*
X152664342Y31261906D01*
X152664342Y31261906D02*
X152759580Y31309525D01*
X152759580Y31309525D02*
X152807200Y31357144D01*
X152807200Y31357144D02*
X152854819Y31452382D01*
X152854819Y31452382D02*
X152854819Y31642858D01*
X152854819Y31642858D02*
X152807200Y31738096D01*
X152807200Y31738096D02*
X152759580Y31785715D01*
X152759580Y31785715D02*
X152664342Y31833334D01*
X152664342Y31833334D02*
X151854819Y31833334D01*
X152854819Y32833334D02*
X152854819Y32261906D01*
X152854819Y32547620D02*
X151854819Y32547620D01*
X151854819Y32547620D02*
X151997676Y32452382D01*
X151997676Y32452382D02*
X152092914Y32357144D01*
X152092914Y32357144D02*
X152140533Y32261906D01*
X152188152Y33690477D02*
X152854819Y33690477D01*
X151807200Y33452382D02*
X152521485Y33214287D01*
X152521485Y33214287D02*
X152521485Y33833334D01*
X174561009Y32794286D02*
X174608628Y32937143D01*
X174608628Y32937143D02*
X174656247Y32984762D01*
X174656247Y32984762D02*
X174751485Y33032381D01*
X174751485Y33032381D02*
X174894342Y33032381D01*
X174894342Y33032381D02*
X174989580Y32984762D01*
X174989580Y32984762D02*
X175037200Y32937143D01*
X175037200Y32937143D02*
X175084819Y32841905D01*
X175084819Y32841905D02*
X175084819Y32460953D01*
X175084819Y32460953D02*
X174084819Y32460953D01*
X174084819Y32460953D02*
X174084819Y32794286D01*
X174084819Y32794286D02*
X174132438Y32889524D01*
X174132438Y32889524D02*
X174180057Y32937143D01*
X174180057Y32937143D02*
X174275295Y32984762D01*
X174275295Y32984762D02*
X174370533Y32984762D01*
X174370533Y32984762D02*
X174465771Y32937143D01*
X174465771Y32937143D02*
X174513390Y32889524D01*
X174513390Y32889524D02*
X174561009Y32794286D01*
X174561009Y32794286D02*
X174561009Y32460953D01*
X175084819Y33460953D02*
X174418152Y33460953D01*
X174608628Y33460953D02*
X174513390Y33508572D01*
X174513390Y33508572D02*
X174465771Y33556191D01*
X174465771Y33556191D02*
X174418152Y33651429D01*
X174418152Y33651429D02*
X174418152Y33746667D01*
X175084819Y34080001D02*
X174418152Y34080001D01*
X174084819Y34080001D02*
X174132438Y34032382D01*
X174132438Y34032382D02*
X174180057Y34080001D01*
X174180057Y34080001D02*
X174132438Y34127620D01*
X174132438Y34127620D02*
X174084819Y34080001D01*
X174084819Y34080001D02*
X174180057Y34080001D01*
X175084819Y34984762D02*
X174084819Y34984762D01*
X175037200Y34984762D02*
X175084819Y34889524D01*
X175084819Y34889524D02*
X175084819Y34699048D01*
X175084819Y34699048D02*
X175037200Y34603810D01*
X175037200Y34603810D02*
X174989580Y34556191D01*
X174989580Y34556191D02*
X174894342Y34508572D01*
X174894342Y34508572D02*
X174608628Y34508572D01*
X174608628Y34508572D02*
X174513390Y34556191D01*
X174513390Y34556191D02*
X174465771Y34603810D01*
X174465771Y34603810D02*
X174418152Y34699048D01*
X174418152Y34699048D02*
X174418152Y34889524D01*
X174418152Y34889524D02*
X174465771Y34984762D01*
X174418152Y35889524D02*
X175227676Y35889524D01*
X175227676Y35889524D02*
X175322914Y35841905D01*
X175322914Y35841905D02*
X175370533Y35794286D01*
X175370533Y35794286D02*
X175418152Y35699048D01*
X175418152Y35699048D02*
X175418152Y35556191D01*
X175418152Y35556191D02*
X175370533Y35460953D01*
X175037200Y35889524D02*
X175084819Y35794286D01*
X175084819Y35794286D02*
X175084819Y35603810D01*
X175084819Y35603810D02*
X175037200Y35508572D01*
X175037200Y35508572D02*
X174989580Y35460953D01*
X174989580Y35460953D02*
X174894342Y35413334D01*
X174894342Y35413334D02*
X174608628Y35413334D01*
X174608628Y35413334D02*
X174513390Y35460953D01*
X174513390Y35460953D02*
X174465771Y35508572D01*
X174465771Y35508572D02*
X174418152Y35603810D01*
X174418152Y35603810D02*
X174418152Y35794286D01*
X174418152Y35794286D02*
X174465771Y35889524D01*
X175037200Y36746667D02*
X175084819Y36651429D01*
X175084819Y36651429D02*
X175084819Y36460953D01*
X175084819Y36460953D02*
X175037200Y36365715D01*
X175037200Y36365715D02*
X174941961Y36318096D01*
X174941961Y36318096D02*
X174561009Y36318096D01*
X174561009Y36318096D02*
X174465771Y36365715D01*
X174465771Y36365715D02*
X174418152Y36460953D01*
X174418152Y36460953D02*
X174418152Y36651429D01*
X174418152Y36651429D02*
X174465771Y36746667D01*
X174465771Y36746667D02*
X174561009Y36794286D01*
X174561009Y36794286D02*
X174656247Y36794286D01*
X174656247Y36794286D02*
X174751485Y36318096D01*
X174084819Y37127620D02*
X174084819Y37794286D01*
X174084819Y37794286D02*
X175084819Y37365715D01*
X4238095Y8395181D02*
X4238095Y9395181D01*
X4238095Y8918991D02*
X4809523Y8918991D01*
X4809523Y8395181D02*
X4809523Y9395181D01*
X5238095Y9299943D02*
X5285714Y9347562D01*
X5285714Y9347562D02*
X5380952Y9395181D01*
X5380952Y9395181D02*
X5619047Y9395181D01*
X5619047Y9395181D02*
X5714285Y9347562D01*
X5714285Y9347562D02*
X5761904Y9299943D01*
X5761904Y9299943D02*
X5809523Y9204705D01*
X5809523Y9204705D02*
X5809523Y9109467D01*
X5809523Y9109467D02*
X5761904Y8966610D01*
X5761904Y8966610D02*
X5190476Y8395181D01*
X5190476Y8395181D02*
X5809523Y8395181D01*
X160059819Y95513096D02*
X160869342Y95513096D01*
X160869342Y95513096D02*
X160964580Y95560715D01*
X160964580Y95560715D02*
X161012200Y95608334D01*
X161012200Y95608334D02*
X161059819Y95703572D01*
X161059819Y95703572D02*
X161059819Y95894048D01*
X161059819Y95894048D02*
X161012200Y95989286D01*
X161012200Y95989286D02*
X160964580Y96036905D01*
X160964580Y96036905D02*
X160869342Y96084524D01*
X160869342Y96084524D02*
X160059819Y96084524D01*
X160059819Y96989286D02*
X160059819Y96798810D01*
X160059819Y96798810D02*
X160107438Y96703572D01*
X160107438Y96703572D02*
X160155057Y96655953D01*
X160155057Y96655953D02*
X160297914Y96560715D01*
X160297914Y96560715D02*
X160488390Y96513096D01*
X160488390Y96513096D02*
X160869342Y96513096D01*
X160869342Y96513096D02*
X160964580Y96560715D01*
X160964580Y96560715D02*
X161012200Y96608334D01*
X161012200Y96608334D02*
X161059819Y96703572D01*
X161059819Y96703572D02*
X161059819Y96894048D01*
X161059819Y96894048D02*
X161012200Y96989286D01*
X161012200Y96989286D02*
X160964580Y97036905D01*
X160964580Y97036905D02*
X160869342Y97084524D01*
X160869342Y97084524D02*
X160631247Y97084524D01*
X160631247Y97084524D02*
X160536009Y97036905D01*
X160536009Y97036905D02*
X160488390Y96989286D01*
X160488390Y96989286D02*
X160440771Y96894048D01*
X160440771Y96894048D02*
X160440771Y96703572D01*
X160440771Y96703572D02*
X160488390Y96608334D01*
X160488390Y96608334D02*
X160536009Y96560715D01*
X160536009Y96560715D02*
X160631247Y96513096D01*
X38733333Y61954820D02*
X39066666Y61478629D01*
X39304761Y61954820D02*
X39304761Y60954820D01*
X39304761Y60954820D02*
X38923809Y60954820D01*
X38923809Y60954820D02*
X38828571Y61002439D01*
X38828571Y61002439D02*
X38780952Y61050058D01*
X38780952Y61050058D02*
X38733333Y61145296D01*
X38733333Y61145296D02*
X38733333Y61288153D01*
X38733333Y61288153D02*
X38780952Y61383391D01*
X38780952Y61383391D02*
X38828571Y61431010D01*
X38828571Y61431010D02*
X38923809Y61478629D01*
X38923809Y61478629D02*
X39304761Y61478629D01*
X38304761Y61431010D02*
X37971428Y61431010D01*
X37828571Y61954820D02*
X38304761Y61954820D01*
X38304761Y61954820D02*
X38304761Y60954820D01*
X38304761Y60954820D02*
X37828571Y60954820D01*
X37066666Y61431010D02*
X37399999Y61431010D01*
X37399999Y61954820D02*
X37399999Y60954820D01*
X37399999Y60954820D02*
X36923809Y60954820D01*
X36399999Y60954820D02*
X36399999Y61192915D01*
X36638094Y61097677D02*
X36399999Y61192915D01*
X36399999Y61192915D02*
X36161904Y61097677D01*
X36542856Y61383391D02*
X36399999Y61192915D01*
X36399999Y61192915D02*
X36257142Y61383391D01*
X35638094Y60954820D02*
X35638094Y61192915D01*
X35876189Y61097677D02*
X35638094Y61192915D01*
X35638094Y61192915D02*
X35399999Y61097677D01*
X35780951Y61383391D02*
X35638094Y61192915D01*
X35638094Y61192915D02*
X35495237Y61383391D01*
X99861905Y73815181D02*
X99861905Y73005658D01*
X99861905Y73005658D02*
X99909524Y72910420D01*
X99909524Y72910420D02*
X99957143Y72862800D01*
X99957143Y72862800D02*
X100052381Y72815181D01*
X100052381Y72815181D02*
X100242857Y72815181D01*
X100242857Y72815181D02*
X100338095Y72862800D01*
X100338095Y72862800D02*
X100385714Y72910420D01*
X100385714Y72910420D02*
X100433333Y73005658D01*
X100433333Y73005658D02*
X100433333Y73815181D01*
X101433333Y72815181D02*
X100861905Y72815181D01*
X101147619Y72815181D02*
X101147619Y73815181D01*
X101147619Y73815181D02*
X101052381Y73672324D01*
X101052381Y73672324D02*
X100957143Y73577086D01*
X100957143Y73577086D02*
X100861905Y73529467D01*
X102290476Y73815181D02*
X102100000Y73815181D01*
X102100000Y73815181D02*
X102004762Y73767562D01*
X102004762Y73767562D02*
X101957143Y73719943D01*
X101957143Y73719943D02*
X101861905Y73577086D01*
X101861905Y73577086D02*
X101814286Y73386610D01*
X101814286Y73386610D02*
X101814286Y73005658D01*
X101814286Y73005658D02*
X101861905Y72910420D01*
X101861905Y72910420D02*
X101909524Y72862800D01*
X101909524Y72862800D02*
X102004762Y72815181D01*
X102004762Y72815181D02*
X102195238Y72815181D01*
X102195238Y72815181D02*
X102290476Y72862800D01*
X102290476Y72862800D02*
X102338095Y72910420D01*
X102338095Y72910420D02*
X102385714Y73005658D01*
X102385714Y73005658D02*
X102385714Y73243753D01*
X102385714Y73243753D02*
X102338095Y73338991D01*
X102338095Y73338991D02*
X102290476Y73386610D01*
X102290476Y73386610D02*
X102195238Y73434229D01*
X102195238Y73434229D02*
X102004762Y73434229D01*
X102004762Y73434229D02*
X101909524Y73386610D01*
X101909524Y73386610D02*
X101861905Y73338991D01*
X101861905Y73338991D02*
X101814286Y73243753D01*
X56716666Y51715181D02*
X56716666Y51000896D01*
X56716666Y51000896D02*
X56669047Y50858039D01*
X56669047Y50858039D02*
X56573809Y50762800D01*
X56573809Y50762800D02*
X56430952Y50715181D01*
X56430952Y50715181D02*
X56335714Y50715181D01*
X57192857Y50715181D02*
X57192857Y51715181D01*
X57192857Y51715181D02*
X57573809Y51715181D01*
X57573809Y51715181D02*
X57669047Y51667562D01*
X57669047Y51667562D02*
X57716666Y51619943D01*
X57716666Y51619943D02*
X57764285Y51524705D01*
X57764285Y51524705D02*
X57764285Y51381848D01*
X57764285Y51381848D02*
X57716666Y51286610D01*
X57716666Y51286610D02*
X57669047Y51238991D01*
X57669047Y51238991D02*
X57573809Y51191372D01*
X57573809Y51191372D02*
X57192857Y51191372D01*
X58716666Y50715181D02*
X58145238Y50715181D01*
X58430952Y50715181D02*
X58430952Y51715181D01*
X58430952Y51715181D02*
X58335714Y51572324D01*
X58335714Y51572324D02*
X58240476Y51477086D01*
X58240476Y51477086D02*
X58145238Y51429467D01*
X140209580Y23983334D02*
X140257200Y23935715D01*
X140257200Y23935715D02*
X140304819Y23792858D01*
X140304819Y23792858D02*
X140304819Y23697620D01*
X140304819Y23697620D02*
X140257200Y23554763D01*
X140257200Y23554763D02*
X140161961Y23459525D01*
X140161961Y23459525D02*
X140066723Y23411906D01*
X140066723Y23411906D02*
X139876247Y23364287D01*
X139876247Y23364287D02*
X139733390Y23364287D01*
X139733390Y23364287D02*
X139542914Y23411906D01*
X139542914Y23411906D02*
X139447676Y23459525D01*
X139447676Y23459525D02*
X139352438Y23554763D01*
X139352438Y23554763D02*
X139304819Y23697620D01*
X139304819Y23697620D02*
X139304819Y23792858D01*
X139304819Y23792858D02*
X139352438Y23935715D01*
X139352438Y23935715D02*
X139400057Y23983334D01*
X139304819Y24888096D02*
X139304819Y24411906D01*
X139304819Y24411906D02*
X139781009Y24364287D01*
X139781009Y24364287D02*
X139733390Y24411906D01*
X139733390Y24411906D02*
X139685771Y24507144D01*
X139685771Y24507144D02*
X139685771Y24745239D01*
X139685771Y24745239D02*
X139733390Y24840477D01*
X139733390Y24840477D02*
X139781009Y24888096D01*
X139781009Y24888096D02*
X139876247Y24935715D01*
X139876247Y24935715D02*
X140114342Y24935715D01*
X140114342Y24935715D02*
X140209580Y24888096D01*
X140209580Y24888096D02*
X140257200Y24840477D01*
X140257200Y24840477D02*
X140304819Y24745239D01*
X140304819Y24745239D02*
X140304819Y24507144D01*
X140304819Y24507144D02*
X140257200Y24411906D01*
X140257200Y24411906D02*
X140209580Y24364287D01*
X201238095Y8395181D02*
X201238095Y9395181D01*
X201238095Y8918991D02*
X201809523Y8918991D01*
X201809523Y8395181D02*
X201809523Y9395181D01*
X202714285Y9061848D02*
X202714285Y8395181D01*
X202476190Y9442800D02*
X202238095Y8728515D01*
X202238095Y8728515D02*
X202857142Y8728515D01*
X172641667Y11572800D02*
X172784524Y11525181D01*
X172784524Y11525181D02*
X173022619Y11525181D01*
X173022619Y11525181D02*
X173117857Y11572800D01*
X173117857Y11572800D02*
X173165476Y11620420D01*
X173165476Y11620420D02*
X173213095Y11715658D01*
X173213095Y11715658D02*
X173213095Y11810896D01*
X173213095Y11810896D02*
X173165476Y11906134D01*
X173165476Y11906134D02*
X173117857Y11953753D01*
X173117857Y11953753D02*
X173022619Y12001372D01*
X173022619Y12001372D02*
X172832143Y12048991D01*
X172832143Y12048991D02*
X172736905Y12096610D01*
X172736905Y12096610D02*
X172689286Y12144229D01*
X172689286Y12144229D02*
X172641667Y12239467D01*
X172641667Y12239467D02*
X172641667Y12334705D01*
X172641667Y12334705D02*
X172689286Y12429943D01*
X172689286Y12429943D02*
X172736905Y12477562D01*
X172736905Y12477562D02*
X172832143Y12525181D01*
X172832143Y12525181D02*
X173070238Y12525181D01*
X173070238Y12525181D02*
X173213095Y12477562D01*
X173546429Y12525181D02*
X173784524Y11525181D01*
X173784524Y11525181D02*
X173975000Y12239467D01*
X173975000Y12239467D02*
X174165476Y11525181D01*
X174165476Y11525181D02*
X174403572Y12525181D01*
X175308333Y11525181D02*
X174736905Y11525181D01*
X175022619Y11525181D02*
X175022619Y12525181D01*
X175022619Y12525181D02*
X174927381Y12382324D01*
X174927381Y12382324D02*
X174832143Y12287086D01*
X174832143Y12287086D02*
X174736905Y12239467D01*
X138561009Y32794286D02*
X138608628Y32937143D01*
X138608628Y32937143D02*
X138656247Y32984762D01*
X138656247Y32984762D02*
X138751485Y33032381D01*
X138751485Y33032381D02*
X138894342Y33032381D01*
X138894342Y33032381D02*
X138989580Y32984762D01*
X138989580Y32984762D02*
X139037200Y32937143D01*
X139037200Y32937143D02*
X139084819Y32841905D01*
X139084819Y32841905D02*
X139084819Y32460953D01*
X139084819Y32460953D02*
X138084819Y32460953D01*
X138084819Y32460953D02*
X138084819Y32794286D01*
X138084819Y32794286D02*
X138132438Y32889524D01*
X138132438Y32889524D02*
X138180057Y32937143D01*
X138180057Y32937143D02*
X138275295Y32984762D01*
X138275295Y32984762D02*
X138370533Y32984762D01*
X138370533Y32984762D02*
X138465771Y32937143D01*
X138465771Y32937143D02*
X138513390Y32889524D01*
X138513390Y32889524D02*
X138561009Y32794286D01*
X138561009Y32794286D02*
X138561009Y32460953D01*
X139084819Y33460953D02*
X138418152Y33460953D01*
X138608628Y33460953D02*
X138513390Y33508572D01*
X138513390Y33508572D02*
X138465771Y33556191D01*
X138465771Y33556191D02*
X138418152Y33651429D01*
X138418152Y33651429D02*
X138418152Y33746667D01*
X139084819Y34080001D02*
X138418152Y34080001D01*
X138084819Y34080001D02*
X138132438Y34032382D01*
X138132438Y34032382D02*
X138180057Y34080001D01*
X138180057Y34080001D02*
X138132438Y34127620D01*
X138132438Y34127620D02*
X138084819Y34080001D01*
X138084819Y34080001D02*
X138180057Y34080001D01*
X139084819Y34984762D02*
X138084819Y34984762D01*
X139037200Y34984762D02*
X139084819Y34889524D01*
X139084819Y34889524D02*
X139084819Y34699048D01*
X139084819Y34699048D02*
X139037200Y34603810D01*
X139037200Y34603810D02*
X138989580Y34556191D01*
X138989580Y34556191D02*
X138894342Y34508572D01*
X138894342Y34508572D02*
X138608628Y34508572D01*
X138608628Y34508572D02*
X138513390Y34556191D01*
X138513390Y34556191D02*
X138465771Y34603810D01*
X138465771Y34603810D02*
X138418152Y34699048D01*
X138418152Y34699048D02*
X138418152Y34889524D01*
X138418152Y34889524D02*
X138465771Y34984762D01*
X138418152Y35889524D02*
X139227676Y35889524D01*
X139227676Y35889524D02*
X139322914Y35841905D01*
X139322914Y35841905D02*
X139370533Y35794286D01*
X139370533Y35794286D02*
X139418152Y35699048D01*
X139418152Y35699048D02*
X139418152Y35556191D01*
X139418152Y35556191D02*
X139370533Y35460953D01*
X139037200Y35889524D02*
X139084819Y35794286D01*
X139084819Y35794286D02*
X139084819Y35603810D01*
X139084819Y35603810D02*
X139037200Y35508572D01*
X139037200Y35508572D02*
X138989580Y35460953D01*
X138989580Y35460953D02*
X138894342Y35413334D01*
X138894342Y35413334D02*
X138608628Y35413334D01*
X138608628Y35413334D02*
X138513390Y35460953D01*
X138513390Y35460953D02*
X138465771Y35508572D01*
X138465771Y35508572D02*
X138418152Y35603810D01*
X138418152Y35603810D02*
X138418152Y35794286D01*
X138418152Y35794286D02*
X138465771Y35889524D01*
X139037200Y36746667D02*
X139084819Y36651429D01*
X139084819Y36651429D02*
X139084819Y36460953D01*
X139084819Y36460953D02*
X139037200Y36365715D01*
X139037200Y36365715D02*
X138941961Y36318096D01*
X138941961Y36318096D02*
X138561009Y36318096D01*
X138561009Y36318096D02*
X138465771Y36365715D01*
X138465771Y36365715D02*
X138418152Y36460953D01*
X138418152Y36460953D02*
X138418152Y36651429D01*
X138418152Y36651429D02*
X138465771Y36746667D01*
X138465771Y36746667D02*
X138561009Y36794286D01*
X138561009Y36794286D02*
X138656247Y36794286D01*
X138656247Y36794286D02*
X138751485Y36318096D01*
X139084819Y37746667D02*
X139084819Y37175239D01*
X139084819Y37460953D02*
X138084819Y37460953D01*
X138084819Y37460953D02*
X138227676Y37365715D01*
X138227676Y37365715D02*
X138322914Y37270477D01*
X138322914Y37270477D02*
X138370533Y37175239D01*
X164261905Y43925181D02*
X164261905Y43115658D01*
X164261905Y43115658D02*
X164309524Y43020420D01*
X164309524Y43020420D02*
X164357143Y42972800D01*
X164357143Y42972800D02*
X164452381Y42925181D01*
X164452381Y42925181D02*
X164642857Y42925181D01*
X164642857Y42925181D02*
X164738095Y42972800D01*
X164738095Y42972800D02*
X164785714Y43020420D01*
X164785714Y43020420D02*
X164833333Y43115658D01*
X164833333Y43115658D02*
X164833333Y43925181D01*
X165833333Y42925181D02*
X165261905Y42925181D01*
X165547619Y42925181D02*
X165547619Y43925181D01*
X165547619Y43925181D02*
X165452381Y43782324D01*
X165452381Y43782324D02*
X165357143Y43687086D01*
X165357143Y43687086D02*
X165261905Y43639467D01*
X166214286Y43829943D02*
X166261905Y43877562D01*
X166261905Y43877562D02*
X166357143Y43925181D01*
X166357143Y43925181D02*
X166595238Y43925181D01*
X166595238Y43925181D02*
X166690476Y43877562D01*
X166690476Y43877562D02*
X166738095Y43829943D01*
X166738095Y43829943D02*
X166785714Y43734705D01*
X166785714Y43734705D02*
X166785714Y43639467D01*
X166785714Y43639467D02*
X166738095Y43496610D01*
X166738095Y43496610D02*
X166166667Y42925181D01*
X166166667Y42925181D02*
X166785714Y42925181D01*
X133854819Y31761906D02*
X134664342Y31761906D01*
X134664342Y31761906D02*
X134759580Y31809525D01*
X134759580Y31809525D02*
X134807200Y31857144D01*
X134807200Y31857144D02*
X134854819Y31952382D01*
X134854819Y31952382D02*
X134854819Y32142858D01*
X134854819Y32142858D02*
X134807200Y32238096D01*
X134807200Y32238096D02*
X134759580Y32285715D01*
X134759580Y32285715D02*
X134664342Y32333334D01*
X134664342Y32333334D02*
X133854819Y32333334D01*
X134854819Y33333334D02*
X134854819Y32761906D01*
X134854819Y33047620D02*
X133854819Y33047620D01*
X133854819Y33047620D02*
X133997676Y32952382D01*
X133997676Y32952382D02*
X134092914Y32857144D01*
X134092914Y32857144D02*
X134140533Y32761906D01*
X133854819Y33666668D02*
X133854819Y34285715D01*
X133854819Y34285715D02*
X134235771Y33952382D01*
X134235771Y33952382D02*
X134235771Y34095239D01*
X134235771Y34095239D02*
X134283390Y34190477D01*
X134283390Y34190477D02*
X134331009Y34238096D01*
X134331009Y34238096D02*
X134426247Y34285715D01*
X134426247Y34285715D02*
X134664342Y34285715D01*
X134664342Y34285715D02*
X134759580Y34238096D01*
X134759580Y34238096D02*
X134807200Y34190477D01*
X134807200Y34190477D02*
X134854819Y34095239D01*
X134854819Y34095239D02*
X134854819Y33809525D01*
X134854819Y33809525D02*
X134807200Y33714287D01*
X134807200Y33714287D02*
X134759580Y33666668D01*
X114759580Y24003334D02*
X114807200Y23955715D01*
X114807200Y23955715D02*
X114854819Y23812858D01*
X114854819Y23812858D02*
X114854819Y23717620D01*
X114854819Y23717620D02*
X114807200Y23574763D01*
X114807200Y23574763D02*
X114711961Y23479525D01*
X114711961Y23479525D02*
X114616723Y23431906D01*
X114616723Y23431906D02*
X114426247Y23384287D01*
X114426247Y23384287D02*
X114283390Y23384287D01*
X114283390Y23384287D02*
X114092914Y23431906D01*
X114092914Y23431906D02*
X113997676Y23479525D01*
X113997676Y23479525D02*
X113902438Y23574763D01*
X113902438Y23574763D02*
X113854819Y23717620D01*
X113854819Y23717620D02*
X113854819Y23812858D01*
X113854819Y23812858D02*
X113902438Y23955715D01*
X113902438Y23955715D02*
X113950057Y24003334D01*
X114854819Y24955715D02*
X114854819Y24384287D01*
X114854819Y24670001D02*
X113854819Y24670001D01*
X113854819Y24670001D02*
X113997676Y24574763D01*
X113997676Y24574763D02*
X114092914Y24479525D01*
X114092914Y24479525D02*
X114140533Y24384287D01*
X25738095Y53295181D02*
X25738095Y52485658D01*
X25738095Y52485658D02*
X25785714Y52390420D01*
X25785714Y52390420D02*
X25833333Y52342800D01*
X25833333Y52342800D02*
X25928571Y52295181D01*
X25928571Y52295181D02*
X26119047Y52295181D01*
X26119047Y52295181D02*
X26214285Y52342800D01*
X26214285Y52342800D02*
X26261904Y52390420D01*
X26261904Y52390420D02*
X26309523Y52485658D01*
X26309523Y52485658D02*
X26309523Y53295181D01*
X26833333Y52295181D02*
X27023809Y52295181D01*
X27023809Y52295181D02*
X27119047Y52342800D01*
X27119047Y52342800D02*
X27166666Y52390420D01*
X27166666Y52390420D02*
X27261904Y52533277D01*
X27261904Y52533277D02*
X27309523Y52723753D01*
X27309523Y52723753D02*
X27309523Y53104705D01*
X27309523Y53104705D02*
X27261904Y53199943D01*
X27261904Y53199943D02*
X27214285Y53247562D01*
X27214285Y53247562D02*
X27119047Y53295181D01*
X27119047Y53295181D02*
X26928571Y53295181D01*
X26928571Y53295181D02*
X26833333Y53247562D01*
X26833333Y53247562D02*
X26785714Y53199943D01*
X26785714Y53199943D02*
X26738095Y53104705D01*
X26738095Y53104705D02*
X26738095Y52866610D01*
X26738095Y52866610D02*
X26785714Y52771372D01*
X26785714Y52771372D02*
X26833333Y52723753D01*
X26833333Y52723753D02*
X26928571Y52676134D01*
X26928571Y52676134D02*
X27119047Y52676134D01*
X27119047Y52676134D02*
X27214285Y52723753D01*
X27214285Y52723753D02*
X27261904Y52771372D01*
X27261904Y52771372D02*
X27309523Y52866610D01*
X110261009Y33794286D02*
X110308628Y33937143D01*
X110308628Y33937143D02*
X110356247Y33984762D01*
X110356247Y33984762D02*
X110451485Y34032381D01*
X110451485Y34032381D02*
X110594342Y34032381D01*
X110594342Y34032381D02*
X110689580Y33984762D01*
X110689580Y33984762D02*
X110737200Y33937143D01*
X110737200Y33937143D02*
X110784819Y33841905D01*
X110784819Y33841905D02*
X110784819Y33460953D01*
X110784819Y33460953D02*
X109784819Y33460953D01*
X109784819Y33460953D02*
X109784819Y33794286D01*
X109784819Y33794286D02*
X109832438Y33889524D01*
X109832438Y33889524D02*
X109880057Y33937143D01*
X109880057Y33937143D02*
X109975295Y33984762D01*
X109975295Y33984762D02*
X110070533Y33984762D01*
X110070533Y33984762D02*
X110165771Y33937143D01*
X110165771Y33937143D02*
X110213390Y33889524D01*
X110213390Y33889524D02*
X110261009Y33794286D01*
X110261009Y33794286D02*
X110261009Y33460953D01*
X110784819Y34460953D02*
X110118152Y34460953D01*
X110308628Y34460953D02*
X110213390Y34508572D01*
X110213390Y34508572D02*
X110165771Y34556191D01*
X110165771Y34556191D02*
X110118152Y34651429D01*
X110118152Y34651429D02*
X110118152Y34746667D01*
X110784819Y35080001D02*
X110118152Y35080001D01*
X109784819Y35080001D02*
X109832438Y35032382D01*
X109832438Y35032382D02*
X109880057Y35080001D01*
X109880057Y35080001D02*
X109832438Y35127620D01*
X109832438Y35127620D02*
X109784819Y35080001D01*
X109784819Y35080001D02*
X109880057Y35080001D01*
X110784819Y35984762D02*
X109784819Y35984762D01*
X110737200Y35984762D02*
X110784819Y35889524D01*
X110784819Y35889524D02*
X110784819Y35699048D01*
X110784819Y35699048D02*
X110737200Y35603810D01*
X110737200Y35603810D02*
X110689580Y35556191D01*
X110689580Y35556191D02*
X110594342Y35508572D01*
X110594342Y35508572D02*
X110308628Y35508572D01*
X110308628Y35508572D02*
X110213390Y35556191D01*
X110213390Y35556191D02*
X110165771Y35603810D01*
X110165771Y35603810D02*
X110118152Y35699048D01*
X110118152Y35699048D02*
X110118152Y35889524D01*
X110118152Y35889524D02*
X110165771Y35984762D01*
X110118152Y36889524D02*
X110927676Y36889524D01*
X110927676Y36889524D02*
X111022914Y36841905D01*
X111022914Y36841905D02*
X111070533Y36794286D01*
X111070533Y36794286D02*
X111118152Y36699048D01*
X111118152Y36699048D02*
X111118152Y36556191D01*
X111118152Y36556191D02*
X111070533Y36460953D01*
X110737200Y36889524D02*
X110784819Y36794286D01*
X110784819Y36794286D02*
X110784819Y36603810D01*
X110784819Y36603810D02*
X110737200Y36508572D01*
X110737200Y36508572D02*
X110689580Y36460953D01*
X110689580Y36460953D02*
X110594342Y36413334D01*
X110594342Y36413334D02*
X110308628Y36413334D01*
X110308628Y36413334D02*
X110213390Y36460953D01*
X110213390Y36460953D02*
X110165771Y36508572D01*
X110165771Y36508572D02*
X110118152Y36603810D01*
X110118152Y36603810D02*
X110118152Y36794286D01*
X110118152Y36794286D02*
X110165771Y36889524D01*
X110737200Y37746667D02*
X110784819Y37651429D01*
X110784819Y37651429D02*
X110784819Y37460953D01*
X110784819Y37460953D02*
X110737200Y37365715D01*
X110737200Y37365715D02*
X110641961Y37318096D01*
X110641961Y37318096D02*
X110261009Y37318096D01*
X110261009Y37318096D02*
X110165771Y37365715D01*
X110165771Y37365715D02*
X110118152Y37460953D01*
X110118152Y37460953D02*
X110118152Y37651429D01*
X110118152Y37651429D02*
X110165771Y37746667D01*
X110165771Y37746667D02*
X110261009Y37794286D01*
X110261009Y37794286D02*
X110356247Y37794286D01*
X110356247Y37794286D02*
X110451485Y37318096D01*
X110784819Y38746667D02*
X110784819Y38175239D01*
X110784819Y38460953D02*
X109784819Y38460953D01*
X109784819Y38460953D02*
X109927676Y38365715D01*
X109927676Y38365715D02*
X110022914Y38270477D01*
X110022914Y38270477D02*
X110070533Y38175239D01*
X158559580Y24033334D02*
X158607200Y23985715D01*
X158607200Y23985715D02*
X158654819Y23842858D01*
X158654819Y23842858D02*
X158654819Y23747620D01*
X158654819Y23747620D02*
X158607200Y23604763D01*
X158607200Y23604763D02*
X158511961Y23509525D01*
X158511961Y23509525D02*
X158416723Y23461906D01*
X158416723Y23461906D02*
X158226247Y23414287D01*
X158226247Y23414287D02*
X158083390Y23414287D01*
X158083390Y23414287D02*
X157892914Y23461906D01*
X157892914Y23461906D02*
X157797676Y23509525D01*
X157797676Y23509525D02*
X157702438Y23604763D01*
X157702438Y23604763D02*
X157654819Y23747620D01*
X157654819Y23747620D02*
X157654819Y23842858D01*
X157654819Y23842858D02*
X157702438Y23985715D01*
X157702438Y23985715D02*
X157750057Y24033334D01*
X157654819Y24366668D02*
X157654819Y24985715D01*
X157654819Y24985715D02*
X158035771Y24652382D01*
X158035771Y24652382D02*
X158035771Y24795239D01*
X158035771Y24795239D02*
X158083390Y24890477D01*
X158083390Y24890477D02*
X158131009Y24938096D01*
X158131009Y24938096D02*
X158226247Y24985715D01*
X158226247Y24985715D02*
X158464342Y24985715D01*
X158464342Y24985715D02*
X158559580Y24938096D01*
X158559580Y24938096D02*
X158607200Y24890477D01*
X158607200Y24890477D02*
X158654819Y24795239D01*
X158654819Y24795239D02*
X158654819Y24509525D01*
X158654819Y24509525D02*
X158607200Y24414287D01*
X158607200Y24414287D02*
X158559580Y24366668D01*
X170964819Y72488096D02*
X171774342Y72488096D01*
X171774342Y72488096D02*
X171869580Y72535715D01*
X171869580Y72535715D02*
X171917200Y72583334D01*
X171917200Y72583334D02*
X171964819Y72678572D01*
X171964819Y72678572D02*
X171964819Y72869048D01*
X171964819Y72869048D02*
X171917200Y72964286D01*
X171917200Y72964286D02*
X171869580Y73011905D01*
X171869580Y73011905D02*
X171774342Y73059524D01*
X171774342Y73059524D02*
X170964819Y73059524D01*
X171060057Y73488096D02*
X171012438Y73535715D01*
X171012438Y73535715D02*
X170964819Y73630953D01*
X170964819Y73630953D02*
X170964819Y73869048D01*
X170964819Y73869048D02*
X171012438Y73964286D01*
X171012438Y73964286D02*
X171060057Y74011905D01*
X171060057Y74011905D02*
X171155295Y74059524D01*
X171155295Y74059524D02*
X171250533Y74059524D01*
X171250533Y74059524D02*
X171393390Y74011905D01*
X171393390Y74011905D02*
X171964819Y73440477D01*
X171964819Y73440477D02*
X171964819Y74059524D01*
X77824819Y23833334D02*
X77348628Y23500001D01*
X77824819Y23261906D02*
X76824819Y23261906D01*
X76824819Y23261906D02*
X76824819Y23642858D01*
X76824819Y23642858D02*
X76872438Y23738096D01*
X76872438Y23738096D02*
X76920057Y23785715D01*
X76920057Y23785715D02*
X77015295Y23833334D01*
X77015295Y23833334D02*
X77158152Y23833334D01*
X77158152Y23833334D02*
X77253390Y23785715D01*
X77253390Y23785715D02*
X77301009Y23738096D01*
X77301009Y23738096D02*
X77348628Y23642858D01*
X77348628Y23642858D02*
X77348628Y23261906D01*
X76920057Y24214287D02*
X76872438Y24261906D01*
X76872438Y24261906D02*
X76824819Y24357144D01*
X76824819Y24357144D02*
X76824819Y24595239D01*
X76824819Y24595239D02*
X76872438Y24690477D01*
X76872438Y24690477D02*
X76920057Y24738096D01*
X76920057Y24738096D02*
X77015295Y24785715D01*
X77015295Y24785715D02*
X77110533Y24785715D01*
X77110533Y24785715D02*
X77253390Y24738096D01*
X77253390Y24738096D02*
X77824819Y24166668D01*
X77824819Y24166668D02*
X77824819Y24785715D01*
X92713095Y39927681D02*
X92713095Y39118158D01*
X92713095Y39118158D02*
X92760714Y39022920D01*
X92760714Y39022920D02*
X92808333Y38975300D01*
X92808333Y38975300D02*
X92903571Y38927681D01*
X92903571Y38927681D02*
X93094047Y38927681D01*
X93094047Y38927681D02*
X93189285Y38975300D01*
X93189285Y38975300D02*
X93236904Y39022920D01*
X93236904Y39022920D02*
X93284523Y39118158D01*
X93284523Y39118158D02*
X93284523Y39927681D01*
X94284523Y38927681D02*
X93713095Y38927681D01*
X93998809Y38927681D02*
X93998809Y39927681D01*
X93998809Y39927681D02*
X93903571Y39784824D01*
X93903571Y39784824D02*
X93808333Y39689586D01*
X93808333Y39689586D02*
X93713095Y39641967D01*
D11*
X74861905Y103442581D02*
X74861905Y102633058D01*
X74861905Y102633058D02*
X74909524Y102537820D01*
X74909524Y102537820D02*
X74957143Y102490200D01*
X74957143Y102490200D02*
X75052381Y102442581D01*
X75052381Y102442581D02*
X75242857Y102442581D01*
X75242857Y102442581D02*
X75338095Y102490200D01*
X75338095Y102490200D02*
X75385714Y102537820D01*
X75385714Y102537820D02*
X75433333Y102633058D01*
X75433333Y102633058D02*
X75433333Y103442581D01*
X76433333Y102442581D02*
X75861905Y102442581D01*
X76147619Y102442581D02*
X76147619Y103442581D01*
X76147619Y103442581D02*
X76052381Y103299724D01*
X76052381Y103299724D02*
X75957143Y103204486D01*
X75957143Y103204486D02*
X75861905Y103156867D01*
X77385714Y102442581D02*
X76814286Y102442581D01*
X77100000Y102442581D02*
X77100000Y103442581D01*
X77100000Y103442581D02*
X77004762Y103299724D01*
X77004762Y103299724D02*
X76909524Y103204486D01*
X76909524Y103204486D02*
X76814286Y103156867D01*
D10*
X123561009Y32794286D02*
X123608628Y32937143D01*
X123608628Y32937143D02*
X123656247Y32984762D01*
X123656247Y32984762D02*
X123751485Y33032381D01*
X123751485Y33032381D02*
X123894342Y33032381D01*
X123894342Y33032381D02*
X123989580Y32984762D01*
X123989580Y32984762D02*
X124037200Y32937143D01*
X124037200Y32937143D02*
X124084819Y32841905D01*
X124084819Y32841905D02*
X124084819Y32460953D01*
X124084819Y32460953D02*
X123084819Y32460953D01*
X123084819Y32460953D02*
X123084819Y32794286D01*
X123084819Y32794286D02*
X123132438Y32889524D01*
X123132438Y32889524D02*
X123180057Y32937143D01*
X123180057Y32937143D02*
X123275295Y32984762D01*
X123275295Y32984762D02*
X123370533Y32984762D01*
X123370533Y32984762D02*
X123465771Y32937143D01*
X123465771Y32937143D02*
X123513390Y32889524D01*
X123513390Y32889524D02*
X123561009Y32794286D01*
X123561009Y32794286D02*
X123561009Y32460953D01*
X124084819Y33460953D02*
X123418152Y33460953D01*
X123608628Y33460953D02*
X123513390Y33508572D01*
X123513390Y33508572D02*
X123465771Y33556191D01*
X123465771Y33556191D02*
X123418152Y33651429D01*
X123418152Y33651429D02*
X123418152Y33746667D01*
X124084819Y34080001D02*
X123418152Y34080001D01*
X123084819Y34080001D02*
X123132438Y34032382D01*
X123132438Y34032382D02*
X123180057Y34080001D01*
X123180057Y34080001D02*
X123132438Y34127620D01*
X123132438Y34127620D02*
X123084819Y34080001D01*
X123084819Y34080001D02*
X123180057Y34080001D01*
X124084819Y34984762D02*
X123084819Y34984762D01*
X124037200Y34984762D02*
X124084819Y34889524D01*
X124084819Y34889524D02*
X124084819Y34699048D01*
X124084819Y34699048D02*
X124037200Y34603810D01*
X124037200Y34603810D02*
X123989580Y34556191D01*
X123989580Y34556191D02*
X123894342Y34508572D01*
X123894342Y34508572D02*
X123608628Y34508572D01*
X123608628Y34508572D02*
X123513390Y34556191D01*
X123513390Y34556191D02*
X123465771Y34603810D01*
X123465771Y34603810D02*
X123418152Y34699048D01*
X123418152Y34699048D02*
X123418152Y34889524D01*
X123418152Y34889524D02*
X123465771Y34984762D01*
X123418152Y35889524D02*
X124227676Y35889524D01*
X124227676Y35889524D02*
X124322914Y35841905D01*
X124322914Y35841905D02*
X124370533Y35794286D01*
X124370533Y35794286D02*
X124418152Y35699048D01*
X124418152Y35699048D02*
X124418152Y35556191D01*
X124418152Y35556191D02*
X124370533Y35460953D01*
X124037200Y35889524D02*
X124084819Y35794286D01*
X124084819Y35794286D02*
X124084819Y35603810D01*
X124084819Y35603810D02*
X124037200Y35508572D01*
X124037200Y35508572D02*
X123989580Y35460953D01*
X123989580Y35460953D02*
X123894342Y35413334D01*
X123894342Y35413334D02*
X123608628Y35413334D01*
X123608628Y35413334D02*
X123513390Y35460953D01*
X123513390Y35460953D02*
X123465771Y35508572D01*
X123465771Y35508572D02*
X123418152Y35603810D01*
X123418152Y35603810D02*
X123418152Y35794286D01*
X123418152Y35794286D02*
X123465771Y35889524D01*
X124037200Y36746667D02*
X124084819Y36651429D01*
X124084819Y36651429D02*
X124084819Y36460953D01*
X124084819Y36460953D02*
X124037200Y36365715D01*
X124037200Y36365715D02*
X123941961Y36318096D01*
X123941961Y36318096D02*
X123561009Y36318096D01*
X123561009Y36318096D02*
X123465771Y36365715D01*
X123465771Y36365715D02*
X123418152Y36460953D01*
X123418152Y36460953D02*
X123418152Y36651429D01*
X123418152Y36651429D02*
X123465771Y36746667D01*
X123465771Y36746667D02*
X123561009Y36794286D01*
X123561009Y36794286D02*
X123656247Y36794286D01*
X123656247Y36794286D02*
X123751485Y36318096D01*
X124084819Y37746667D02*
X124084819Y37175239D01*
X124084819Y37460953D02*
X123084819Y37460953D01*
X123084819Y37460953D02*
X123227676Y37365715D01*
X123227676Y37365715D02*
X123322914Y37270477D01*
X123322914Y37270477D02*
X123370533Y37175239D01*
X107761905Y73815181D02*
X107761905Y73005658D01*
X107761905Y73005658D02*
X107809524Y72910420D01*
X107809524Y72910420D02*
X107857143Y72862800D01*
X107857143Y72862800D02*
X107952381Y72815181D01*
X107952381Y72815181D02*
X108142857Y72815181D01*
X108142857Y72815181D02*
X108238095Y72862800D01*
X108238095Y72862800D02*
X108285714Y72910420D01*
X108285714Y72910420D02*
X108333333Y73005658D01*
X108333333Y73005658D02*
X108333333Y73815181D01*
X109333333Y72815181D02*
X108761905Y72815181D01*
X109047619Y72815181D02*
X109047619Y73815181D01*
X109047619Y73815181D02*
X108952381Y73672324D01*
X108952381Y73672324D02*
X108857143Y73577086D01*
X108857143Y73577086D02*
X108761905Y73529467D01*
X109666667Y73815181D02*
X110333333Y73815181D01*
X110333333Y73815181D02*
X109904762Y72815181D01*
X157061009Y57294286D02*
X157108628Y57437143D01*
X157108628Y57437143D02*
X157156247Y57484762D01*
X157156247Y57484762D02*
X157251485Y57532381D01*
X157251485Y57532381D02*
X157394342Y57532381D01*
X157394342Y57532381D02*
X157489580Y57484762D01*
X157489580Y57484762D02*
X157537200Y57437143D01*
X157537200Y57437143D02*
X157584819Y57341905D01*
X157584819Y57341905D02*
X157584819Y56960953D01*
X157584819Y56960953D02*
X156584819Y56960953D01*
X156584819Y56960953D02*
X156584819Y57294286D01*
X156584819Y57294286D02*
X156632438Y57389524D01*
X156632438Y57389524D02*
X156680057Y57437143D01*
X156680057Y57437143D02*
X156775295Y57484762D01*
X156775295Y57484762D02*
X156870533Y57484762D01*
X156870533Y57484762D02*
X156965771Y57437143D01*
X156965771Y57437143D02*
X157013390Y57389524D01*
X157013390Y57389524D02*
X157061009Y57294286D01*
X157061009Y57294286D02*
X157061009Y56960953D01*
X157584819Y57960953D02*
X156918152Y57960953D01*
X157108628Y57960953D02*
X157013390Y58008572D01*
X157013390Y58008572D02*
X156965771Y58056191D01*
X156965771Y58056191D02*
X156918152Y58151429D01*
X156918152Y58151429D02*
X156918152Y58246667D01*
X157584819Y58580001D02*
X156918152Y58580001D01*
X156584819Y58580001D02*
X156632438Y58532382D01*
X156632438Y58532382D02*
X156680057Y58580001D01*
X156680057Y58580001D02*
X156632438Y58627620D01*
X156632438Y58627620D02*
X156584819Y58580001D01*
X156584819Y58580001D02*
X156680057Y58580001D01*
X157584819Y59484762D02*
X156584819Y59484762D01*
X157537200Y59484762D02*
X157584819Y59389524D01*
X157584819Y59389524D02*
X157584819Y59199048D01*
X157584819Y59199048D02*
X157537200Y59103810D01*
X157537200Y59103810D02*
X157489580Y59056191D01*
X157489580Y59056191D02*
X157394342Y59008572D01*
X157394342Y59008572D02*
X157108628Y59008572D01*
X157108628Y59008572D02*
X157013390Y59056191D01*
X157013390Y59056191D02*
X156965771Y59103810D01*
X156965771Y59103810D02*
X156918152Y59199048D01*
X156918152Y59199048D02*
X156918152Y59389524D01*
X156918152Y59389524D02*
X156965771Y59484762D01*
X156918152Y60389524D02*
X157727676Y60389524D01*
X157727676Y60389524D02*
X157822914Y60341905D01*
X157822914Y60341905D02*
X157870533Y60294286D01*
X157870533Y60294286D02*
X157918152Y60199048D01*
X157918152Y60199048D02*
X157918152Y60056191D01*
X157918152Y60056191D02*
X157870533Y59960953D01*
X157537200Y60389524D02*
X157584819Y60294286D01*
X157584819Y60294286D02*
X157584819Y60103810D01*
X157584819Y60103810D02*
X157537200Y60008572D01*
X157537200Y60008572D02*
X157489580Y59960953D01*
X157489580Y59960953D02*
X157394342Y59913334D01*
X157394342Y59913334D02*
X157108628Y59913334D01*
X157108628Y59913334D02*
X157013390Y59960953D01*
X157013390Y59960953D02*
X156965771Y60008572D01*
X156965771Y60008572D02*
X156918152Y60103810D01*
X156918152Y60103810D02*
X156918152Y60294286D01*
X156918152Y60294286D02*
X156965771Y60389524D01*
X157537200Y61246667D02*
X157584819Y61151429D01*
X157584819Y61151429D02*
X157584819Y60960953D01*
X157584819Y60960953D02*
X157537200Y60865715D01*
X157537200Y60865715D02*
X157441961Y60818096D01*
X157441961Y60818096D02*
X157061009Y60818096D01*
X157061009Y60818096D02*
X156965771Y60865715D01*
X156965771Y60865715D02*
X156918152Y60960953D01*
X156918152Y60960953D02*
X156918152Y61151429D01*
X156918152Y61151429D02*
X156965771Y61246667D01*
X156965771Y61246667D02*
X157061009Y61294286D01*
X157061009Y61294286D02*
X157156247Y61294286D01*
X157156247Y61294286D02*
X157251485Y60818096D01*
X156584819Y61627620D02*
X156584819Y62246667D01*
X156584819Y62246667D02*
X156965771Y61913334D01*
X156965771Y61913334D02*
X156965771Y62056191D01*
X156965771Y62056191D02*
X157013390Y62151429D01*
X157013390Y62151429D02*
X157061009Y62199048D01*
X157061009Y62199048D02*
X157156247Y62246667D01*
X157156247Y62246667D02*
X157394342Y62246667D01*
X157394342Y62246667D02*
X157489580Y62199048D01*
X157489580Y62199048D02*
X157537200Y62151429D01*
X157537200Y62151429D02*
X157584819Y62056191D01*
X157584819Y62056191D02*
X157584819Y61770477D01*
X157584819Y61770477D02*
X157537200Y61675239D01*
X157537200Y61675239D02*
X157489580Y61627620D01*
X66561009Y21714286D02*
X66608628Y21857143D01*
X66608628Y21857143D02*
X66656247Y21904762D01*
X66656247Y21904762D02*
X66751485Y21952381D01*
X66751485Y21952381D02*
X66894342Y21952381D01*
X66894342Y21952381D02*
X66989580Y21904762D01*
X66989580Y21904762D02*
X67037200Y21857143D01*
X67037200Y21857143D02*
X67084819Y21761905D01*
X67084819Y21761905D02*
X67084819Y21380953D01*
X67084819Y21380953D02*
X66084819Y21380953D01*
X66084819Y21380953D02*
X66084819Y21714286D01*
X66084819Y21714286D02*
X66132438Y21809524D01*
X66132438Y21809524D02*
X66180057Y21857143D01*
X66180057Y21857143D02*
X66275295Y21904762D01*
X66275295Y21904762D02*
X66370533Y21904762D01*
X66370533Y21904762D02*
X66465771Y21857143D01*
X66465771Y21857143D02*
X66513390Y21809524D01*
X66513390Y21809524D02*
X66561009Y21714286D01*
X66561009Y21714286D02*
X66561009Y21380953D01*
X67084819Y22380953D02*
X66418152Y22380953D01*
X66608628Y22380953D02*
X66513390Y22428572D01*
X66513390Y22428572D02*
X66465771Y22476191D01*
X66465771Y22476191D02*
X66418152Y22571429D01*
X66418152Y22571429D02*
X66418152Y22666667D01*
X67084819Y23000001D02*
X66418152Y23000001D01*
X66084819Y23000001D02*
X66132438Y22952382D01*
X66132438Y22952382D02*
X66180057Y23000001D01*
X66180057Y23000001D02*
X66132438Y23047620D01*
X66132438Y23047620D02*
X66084819Y23000001D01*
X66084819Y23000001D02*
X66180057Y23000001D01*
X67084819Y23904762D02*
X66084819Y23904762D01*
X67037200Y23904762D02*
X67084819Y23809524D01*
X67084819Y23809524D02*
X67084819Y23619048D01*
X67084819Y23619048D02*
X67037200Y23523810D01*
X67037200Y23523810D02*
X66989580Y23476191D01*
X66989580Y23476191D02*
X66894342Y23428572D01*
X66894342Y23428572D02*
X66608628Y23428572D01*
X66608628Y23428572D02*
X66513390Y23476191D01*
X66513390Y23476191D02*
X66465771Y23523810D01*
X66465771Y23523810D02*
X66418152Y23619048D01*
X66418152Y23619048D02*
X66418152Y23809524D01*
X66418152Y23809524D02*
X66465771Y23904762D01*
X66418152Y24809524D02*
X67227676Y24809524D01*
X67227676Y24809524D02*
X67322914Y24761905D01*
X67322914Y24761905D02*
X67370533Y24714286D01*
X67370533Y24714286D02*
X67418152Y24619048D01*
X67418152Y24619048D02*
X67418152Y24476191D01*
X67418152Y24476191D02*
X67370533Y24380953D01*
X67037200Y24809524D02*
X67084819Y24714286D01*
X67084819Y24714286D02*
X67084819Y24523810D01*
X67084819Y24523810D02*
X67037200Y24428572D01*
X67037200Y24428572D02*
X66989580Y24380953D01*
X66989580Y24380953D02*
X66894342Y24333334D01*
X66894342Y24333334D02*
X66608628Y24333334D01*
X66608628Y24333334D02*
X66513390Y24380953D01*
X66513390Y24380953D02*
X66465771Y24428572D01*
X66465771Y24428572D02*
X66418152Y24523810D01*
X66418152Y24523810D02*
X66418152Y24714286D01*
X66418152Y24714286D02*
X66465771Y24809524D01*
X67037200Y25666667D02*
X67084819Y25571429D01*
X67084819Y25571429D02*
X67084819Y25380953D01*
X67084819Y25380953D02*
X67037200Y25285715D01*
X67037200Y25285715D02*
X66941961Y25238096D01*
X66941961Y25238096D02*
X66561009Y25238096D01*
X66561009Y25238096D02*
X66465771Y25285715D01*
X66465771Y25285715D02*
X66418152Y25380953D01*
X66418152Y25380953D02*
X66418152Y25571429D01*
X66418152Y25571429D02*
X66465771Y25666667D01*
X66465771Y25666667D02*
X66561009Y25714286D01*
X66561009Y25714286D02*
X66656247Y25714286D01*
X66656247Y25714286D02*
X66751485Y25238096D01*
X66084819Y26619048D02*
X66084819Y26142858D01*
X66084819Y26142858D02*
X66561009Y26095239D01*
X66561009Y26095239D02*
X66513390Y26142858D01*
X66513390Y26142858D02*
X66465771Y26238096D01*
X66465771Y26238096D02*
X66465771Y26476191D01*
X66465771Y26476191D02*
X66513390Y26571429D01*
X66513390Y26571429D02*
X66561009Y26619048D01*
X66561009Y26619048D02*
X66656247Y26666667D01*
X66656247Y26666667D02*
X66894342Y26666667D01*
X66894342Y26666667D02*
X66989580Y26619048D01*
X66989580Y26619048D02*
X67037200Y26571429D01*
X67037200Y26571429D02*
X67084819Y26476191D01*
X67084819Y26476191D02*
X67084819Y26238096D01*
X67084819Y26238096D02*
X67037200Y26142858D01*
X67037200Y26142858D02*
X66989580Y26095239D01*
X116061905Y73815181D02*
X116061905Y73005658D01*
X116061905Y73005658D02*
X116109524Y72910420D01*
X116109524Y72910420D02*
X116157143Y72862800D01*
X116157143Y72862800D02*
X116252381Y72815181D01*
X116252381Y72815181D02*
X116442857Y72815181D01*
X116442857Y72815181D02*
X116538095Y72862800D01*
X116538095Y72862800D02*
X116585714Y72910420D01*
X116585714Y72910420D02*
X116633333Y73005658D01*
X116633333Y73005658D02*
X116633333Y73815181D01*
X117633333Y72815181D02*
X117061905Y72815181D01*
X117347619Y72815181D02*
X117347619Y73815181D01*
X117347619Y73815181D02*
X117252381Y73672324D01*
X117252381Y73672324D02*
X117157143Y73577086D01*
X117157143Y73577086D02*
X117061905Y73529467D01*
X118204762Y73386610D02*
X118109524Y73434229D01*
X118109524Y73434229D02*
X118061905Y73481848D01*
X118061905Y73481848D02*
X118014286Y73577086D01*
X118014286Y73577086D02*
X118014286Y73624705D01*
X118014286Y73624705D02*
X118061905Y73719943D01*
X118061905Y73719943D02*
X118109524Y73767562D01*
X118109524Y73767562D02*
X118204762Y73815181D01*
X118204762Y73815181D02*
X118395238Y73815181D01*
X118395238Y73815181D02*
X118490476Y73767562D01*
X118490476Y73767562D02*
X118538095Y73719943D01*
X118538095Y73719943D02*
X118585714Y73624705D01*
X118585714Y73624705D02*
X118585714Y73577086D01*
X118585714Y73577086D02*
X118538095Y73481848D01*
X118538095Y73481848D02*
X118490476Y73434229D01*
X118490476Y73434229D02*
X118395238Y73386610D01*
X118395238Y73386610D02*
X118204762Y73386610D01*
X118204762Y73386610D02*
X118109524Y73338991D01*
X118109524Y73338991D02*
X118061905Y73291372D01*
X118061905Y73291372D02*
X118014286Y73196134D01*
X118014286Y73196134D02*
X118014286Y73005658D01*
X118014286Y73005658D02*
X118061905Y72910420D01*
X118061905Y72910420D02*
X118109524Y72862800D01*
X118109524Y72862800D02*
X118204762Y72815181D01*
X118204762Y72815181D02*
X118395238Y72815181D01*
X118395238Y72815181D02*
X118490476Y72862800D01*
X118490476Y72862800D02*
X118538095Y72910420D01*
X118538095Y72910420D02*
X118585714Y73005658D01*
X118585714Y73005658D02*
X118585714Y73196134D01*
X118585714Y73196134D02*
X118538095Y73291372D01*
X118538095Y73291372D02*
X118490476Y73338991D01*
X118490476Y73338991D02*
X118395238Y73386610D01*
X114861905Y23185181D02*
X114861905Y22375658D01*
X114861905Y22375658D02*
X114909524Y22280420D01*
X114909524Y22280420D02*
X114957143Y22232800D01*
X114957143Y22232800D02*
X115052381Y22185181D01*
X115052381Y22185181D02*
X115242857Y22185181D01*
X115242857Y22185181D02*
X115338095Y22232800D01*
X115338095Y22232800D02*
X115385714Y22280420D01*
X115385714Y22280420D02*
X115433333Y22375658D01*
X115433333Y22375658D02*
X115433333Y23185181D01*
X116433333Y22185181D02*
X115861905Y22185181D01*
X116147619Y22185181D02*
X116147619Y23185181D01*
X116147619Y23185181D02*
X116052381Y23042324D01*
X116052381Y23042324D02*
X115957143Y22947086D01*
X115957143Y22947086D02*
X115861905Y22899467D01*
X117338095Y23185181D02*
X116861905Y23185181D01*
X116861905Y23185181D02*
X116814286Y22708991D01*
X116814286Y22708991D02*
X116861905Y22756610D01*
X116861905Y22756610D02*
X116957143Y22804229D01*
X116957143Y22804229D02*
X117195238Y22804229D01*
X117195238Y22804229D02*
X117290476Y22756610D01*
X117290476Y22756610D02*
X117338095Y22708991D01*
X117338095Y22708991D02*
X117385714Y22613753D01*
X117385714Y22613753D02*
X117385714Y22375658D01*
X117385714Y22375658D02*
X117338095Y22280420D01*
X117338095Y22280420D02*
X117290476Y22232800D01*
X117290476Y22232800D02*
X117195238Y22185181D01*
X117195238Y22185181D02*
X116957143Y22185181D01*
X116957143Y22185181D02*
X116861905Y22232800D01*
X116861905Y22232800D02*
X116814286Y22280420D01*
X157061009Y32794286D02*
X157108628Y32937143D01*
X157108628Y32937143D02*
X157156247Y32984762D01*
X157156247Y32984762D02*
X157251485Y33032381D01*
X157251485Y33032381D02*
X157394342Y33032381D01*
X157394342Y33032381D02*
X157489580Y32984762D01*
X157489580Y32984762D02*
X157537200Y32937143D01*
X157537200Y32937143D02*
X157584819Y32841905D01*
X157584819Y32841905D02*
X157584819Y32460953D01*
X157584819Y32460953D02*
X156584819Y32460953D01*
X156584819Y32460953D02*
X156584819Y32794286D01*
X156584819Y32794286D02*
X156632438Y32889524D01*
X156632438Y32889524D02*
X156680057Y32937143D01*
X156680057Y32937143D02*
X156775295Y32984762D01*
X156775295Y32984762D02*
X156870533Y32984762D01*
X156870533Y32984762D02*
X156965771Y32937143D01*
X156965771Y32937143D02*
X157013390Y32889524D01*
X157013390Y32889524D02*
X157061009Y32794286D01*
X157061009Y32794286D02*
X157061009Y32460953D01*
X157584819Y33460953D02*
X156918152Y33460953D01*
X157108628Y33460953D02*
X157013390Y33508572D01*
X157013390Y33508572D02*
X156965771Y33556191D01*
X156965771Y33556191D02*
X156918152Y33651429D01*
X156918152Y33651429D02*
X156918152Y33746667D01*
X157584819Y34080001D02*
X156918152Y34080001D01*
X156584819Y34080001D02*
X156632438Y34032382D01*
X156632438Y34032382D02*
X156680057Y34080001D01*
X156680057Y34080001D02*
X156632438Y34127620D01*
X156632438Y34127620D02*
X156584819Y34080001D01*
X156584819Y34080001D02*
X156680057Y34080001D01*
X157584819Y34984762D02*
X156584819Y34984762D01*
X157537200Y34984762D02*
X157584819Y34889524D01*
X157584819Y34889524D02*
X157584819Y34699048D01*
X157584819Y34699048D02*
X157537200Y34603810D01*
X157537200Y34603810D02*
X157489580Y34556191D01*
X157489580Y34556191D02*
X157394342Y34508572D01*
X157394342Y34508572D02*
X157108628Y34508572D01*
X157108628Y34508572D02*
X157013390Y34556191D01*
X157013390Y34556191D02*
X156965771Y34603810D01*
X156965771Y34603810D02*
X156918152Y34699048D01*
X156918152Y34699048D02*
X156918152Y34889524D01*
X156918152Y34889524D02*
X156965771Y34984762D01*
X156918152Y35889524D02*
X157727676Y35889524D01*
X157727676Y35889524D02*
X157822914Y35841905D01*
X157822914Y35841905D02*
X157870533Y35794286D01*
X157870533Y35794286D02*
X157918152Y35699048D01*
X157918152Y35699048D02*
X157918152Y35556191D01*
X157918152Y35556191D02*
X157870533Y35460953D01*
X157537200Y35889524D02*
X157584819Y35794286D01*
X157584819Y35794286D02*
X157584819Y35603810D01*
X157584819Y35603810D02*
X157537200Y35508572D01*
X157537200Y35508572D02*
X157489580Y35460953D01*
X157489580Y35460953D02*
X157394342Y35413334D01*
X157394342Y35413334D02*
X157108628Y35413334D01*
X157108628Y35413334D02*
X157013390Y35460953D01*
X157013390Y35460953D02*
X156965771Y35508572D01*
X156965771Y35508572D02*
X156918152Y35603810D01*
X156918152Y35603810D02*
X156918152Y35794286D01*
X156918152Y35794286D02*
X156965771Y35889524D01*
X157537200Y36746667D02*
X157584819Y36651429D01*
X157584819Y36651429D02*
X157584819Y36460953D01*
X157584819Y36460953D02*
X157537200Y36365715D01*
X157537200Y36365715D02*
X157441961Y36318096D01*
X157441961Y36318096D02*
X157061009Y36318096D01*
X157061009Y36318096D02*
X156965771Y36365715D01*
X156965771Y36365715D02*
X156918152Y36460953D01*
X156918152Y36460953D02*
X156918152Y36651429D01*
X156918152Y36651429D02*
X156965771Y36746667D01*
X156965771Y36746667D02*
X157061009Y36794286D01*
X157061009Y36794286D02*
X157156247Y36794286D01*
X157156247Y36794286D02*
X157251485Y36318096D01*
X156680057Y37175239D02*
X156632438Y37222858D01*
X156632438Y37222858D02*
X156584819Y37318096D01*
X156584819Y37318096D02*
X156584819Y37556191D01*
X156584819Y37556191D02*
X156632438Y37651429D01*
X156632438Y37651429D02*
X156680057Y37699048D01*
X156680057Y37699048D02*
X156775295Y37746667D01*
X156775295Y37746667D02*
X156870533Y37746667D01*
X156870533Y37746667D02*
X157013390Y37699048D01*
X157013390Y37699048D02*
X157584819Y37127620D01*
X157584819Y37127620D02*
X157584819Y37746667D01*
X136834285Y67038991D02*
X136977142Y66991372D01*
X136977142Y66991372D02*
X137024761Y66943753D01*
X137024761Y66943753D02*
X137072380Y66848515D01*
X137072380Y66848515D02*
X137072380Y66705658D01*
X137072380Y66705658D02*
X137024761Y66610420D01*
X137024761Y66610420D02*
X136977142Y66562800D01*
X136977142Y66562800D02*
X136881904Y66515181D01*
X136881904Y66515181D02*
X136500952Y66515181D01*
X136500952Y66515181D02*
X136500952Y67515181D01*
X136500952Y67515181D02*
X136834285Y67515181D01*
X136834285Y67515181D02*
X136929523Y67467562D01*
X136929523Y67467562D02*
X136977142Y67419943D01*
X136977142Y67419943D02*
X137024761Y67324705D01*
X137024761Y67324705D02*
X137024761Y67229467D01*
X137024761Y67229467D02*
X136977142Y67134229D01*
X136977142Y67134229D02*
X136929523Y67086610D01*
X136929523Y67086610D02*
X136834285Y67038991D01*
X136834285Y67038991D02*
X136500952Y67038991D01*
X137500952Y66515181D02*
X137500952Y67181848D01*
X137500952Y66991372D02*
X137548571Y67086610D01*
X137548571Y67086610D02*
X137596190Y67134229D01*
X137596190Y67134229D02*
X137691428Y67181848D01*
X137691428Y67181848D02*
X137786666Y67181848D01*
X138120000Y66515181D02*
X138120000Y67181848D01*
X138120000Y67515181D02*
X138072381Y67467562D01*
X138072381Y67467562D02*
X138120000Y67419943D01*
X138120000Y67419943D02*
X138167619Y67467562D01*
X138167619Y67467562D02*
X138120000Y67515181D01*
X138120000Y67515181D02*
X138120000Y67419943D01*
X139024761Y66515181D02*
X139024761Y67515181D01*
X139024761Y66562800D02*
X138929523Y66515181D01*
X138929523Y66515181D02*
X138739047Y66515181D01*
X138739047Y66515181D02*
X138643809Y66562800D01*
X138643809Y66562800D02*
X138596190Y66610420D01*
X138596190Y66610420D02*
X138548571Y66705658D01*
X138548571Y66705658D02*
X138548571Y66991372D01*
X138548571Y66991372D02*
X138596190Y67086610D01*
X138596190Y67086610D02*
X138643809Y67134229D01*
X138643809Y67134229D02*
X138739047Y67181848D01*
X138739047Y67181848D02*
X138929523Y67181848D01*
X138929523Y67181848D02*
X139024761Y67134229D01*
X139929523Y67181848D02*
X139929523Y66372324D01*
X139929523Y66372324D02*
X139881904Y66277086D01*
X139881904Y66277086D02*
X139834285Y66229467D01*
X139834285Y66229467D02*
X139739047Y66181848D01*
X139739047Y66181848D02*
X139596190Y66181848D01*
X139596190Y66181848D02*
X139500952Y66229467D01*
X139929523Y66562800D02*
X139834285Y66515181D01*
X139834285Y66515181D02*
X139643809Y66515181D01*
X139643809Y66515181D02*
X139548571Y66562800D01*
X139548571Y66562800D02*
X139500952Y66610420D01*
X139500952Y66610420D02*
X139453333Y66705658D01*
X139453333Y66705658D02*
X139453333Y66991372D01*
X139453333Y66991372D02*
X139500952Y67086610D01*
X139500952Y67086610D02*
X139548571Y67134229D01*
X139548571Y67134229D02*
X139643809Y67181848D01*
X139643809Y67181848D02*
X139834285Y67181848D01*
X139834285Y67181848D02*
X139929523Y67134229D01*
X140786666Y66562800D02*
X140691428Y66515181D01*
X140691428Y66515181D02*
X140500952Y66515181D01*
X140500952Y66515181D02*
X140405714Y66562800D01*
X140405714Y66562800D02*
X140358095Y66658039D01*
X140358095Y66658039D02*
X140358095Y67038991D01*
X140358095Y67038991D02*
X140405714Y67134229D01*
X140405714Y67134229D02*
X140500952Y67181848D01*
X140500952Y67181848D02*
X140691428Y67181848D01*
X140691428Y67181848D02*
X140786666Y67134229D01*
X140786666Y67134229D02*
X140834285Y67038991D01*
X140834285Y67038991D02*
X140834285Y66943753D01*
X140834285Y66943753D02*
X140358095Y66848515D01*
X141691428Y67181848D02*
X141691428Y66515181D01*
X141453333Y67562800D02*
X141215238Y66848515D01*
X141215238Y66848515D02*
X141834285Y66848515D01*
X24094819Y22261906D02*
X24904342Y22261906D01*
X24904342Y22261906D02*
X24999580Y22309525D01*
X24999580Y22309525D02*
X25047200Y22357144D01*
X25047200Y22357144D02*
X25094819Y22452382D01*
X25094819Y22452382D02*
X25094819Y22642858D01*
X25094819Y22642858D02*
X25047200Y22738096D01*
X25047200Y22738096D02*
X24999580Y22785715D01*
X24999580Y22785715D02*
X24904342Y22833334D01*
X24904342Y22833334D02*
X24094819Y22833334D01*
X25094819Y23833334D02*
X25094819Y23261906D01*
X25094819Y23547620D02*
X24094819Y23547620D01*
X24094819Y23547620D02*
X24237676Y23452382D01*
X24237676Y23452382D02*
X24332914Y23357144D01*
X24332914Y23357144D02*
X24380533Y23261906D01*
X24094819Y24452382D02*
X24094819Y24547620D01*
X24094819Y24547620D02*
X24142438Y24642858D01*
X24142438Y24642858D02*
X24190057Y24690477D01*
X24190057Y24690477D02*
X24285295Y24738096D01*
X24285295Y24738096D02*
X24475771Y24785715D01*
X24475771Y24785715D02*
X24713866Y24785715D01*
X24713866Y24785715D02*
X24904342Y24738096D01*
X24904342Y24738096D02*
X24999580Y24690477D01*
X24999580Y24690477D02*
X25047200Y24642858D01*
X25047200Y24642858D02*
X25094819Y24547620D01*
X25094819Y24547620D02*
X25094819Y24452382D01*
X25094819Y24452382D02*
X25047200Y24357144D01*
X25047200Y24357144D02*
X24999580Y24309525D01*
X24999580Y24309525D02*
X24904342Y24261906D01*
X24904342Y24261906D02*
X24713866Y24214287D01*
X24713866Y24214287D02*
X24475771Y24214287D01*
X24475771Y24214287D02*
X24285295Y24261906D01*
X24285295Y24261906D02*
X24190057Y24309525D01*
X24190057Y24309525D02*
X24142438Y24357144D01*
X24142438Y24357144D02*
X24094819Y24452382D01*
X170084819Y34913334D02*
X169608628Y34580001D01*
X170084819Y34341906D02*
X169084819Y34341906D01*
X169084819Y34341906D02*
X169084819Y34722858D01*
X169084819Y34722858D02*
X169132438Y34818096D01*
X169132438Y34818096D02*
X169180057Y34865715D01*
X169180057Y34865715D02*
X169275295Y34913334D01*
X169275295Y34913334D02*
X169418152Y34913334D01*
X169418152Y34913334D02*
X169513390Y34865715D01*
X169513390Y34865715D02*
X169561009Y34818096D01*
X169561009Y34818096D02*
X169608628Y34722858D01*
X169608628Y34722858D02*
X169608628Y34341906D01*
X170084819Y35865715D02*
X170084819Y35294287D01*
X170084819Y35580001D02*
X169084819Y35580001D01*
X169084819Y35580001D02*
X169227676Y35484763D01*
X169227676Y35484763D02*
X169322914Y35389525D01*
X169322914Y35389525D02*
X169370533Y35294287D01*
X195354819Y41238096D02*
X196164342Y41238096D01*
X196164342Y41238096D02*
X196259580Y41285715D01*
X196259580Y41285715D02*
X196307200Y41333334D01*
X196307200Y41333334D02*
X196354819Y41428572D01*
X196354819Y41428572D02*
X196354819Y41619048D01*
X196354819Y41619048D02*
X196307200Y41714286D01*
X196307200Y41714286D02*
X196259580Y41761905D01*
X196259580Y41761905D02*
X196164342Y41809524D01*
X196164342Y41809524D02*
X195354819Y41809524D01*
X195783390Y42428572D02*
X195735771Y42333334D01*
X195735771Y42333334D02*
X195688152Y42285715D01*
X195688152Y42285715D02*
X195592914Y42238096D01*
X195592914Y42238096D02*
X195545295Y42238096D01*
X195545295Y42238096D02*
X195450057Y42285715D01*
X195450057Y42285715D02*
X195402438Y42333334D01*
X195402438Y42333334D02*
X195354819Y42428572D01*
X195354819Y42428572D02*
X195354819Y42619048D01*
X195354819Y42619048D02*
X195402438Y42714286D01*
X195402438Y42714286D02*
X195450057Y42761905D01*
X195450057Y42761905D02*
X195545295Y42809524D01*
X195545295Y42809524D02*
X195592914Y42809524D01*
X195592914Y42809524D02*
X195688152Y42761905D01*
X195688152Y42761905D02*
X195735771Y42714286D01*
X195735771Y42714286D02*
X195783390Y42619048D01*
X195783390Y42619048D02*
X195783390Y42428572D01*
X195783390Y42428572D02*
X195831009Y42333334D01*
X195831009Y42333334D02*
X195878628Y42285715D01*
X195878628Y42285715D02*
X195973866Y42238096D01*
X195973866Y42238096D02*
X196164342Y42238096D01*
X196164342Y42238096D02*
X196259580Y42285715D01*
X196259580Y42285715D02*
X196307200Y42333334D01*
X196307200Y42333334D02*
X196354819Y42428572D01*
X196354819Y42428572D02*
X196354819Y42619048D01*
X196354819Y42619048D02*
X196307200Y42714286D01*
X196307200Y42714286D02*
X196259580Y42761905D01*
X196259580Y42761905D02*
X196164342Y42809524D01*
X196164342Y42809524D02*
X195973866Y42809524D01*
X195973866Y42809524D02*
X195878628Y42761905D01*
X195878628Y42761905D02*
X195831009Y42714286D01*
X195831009Y42714286D02*
X195783390Y42619048D01*
X182238095Y25695181D02*
X182238095Y24885658D01*
X182238095Y24885658D02*
X182285714Y24790420D01*
X182285714Y24790420D02*
X182333333Y24742800D01*
X182333333Y24742800D02*
X182428571Y24695181D01*
X182428571Y24695181D02*
X182619047Y24695181D01*
X182619047Y24695181D02*
X182714285Y24742800D01*
X182714285Y24742800D02*
X182761904Y24790420D01*
X182761904Y24790420D02*
X182809523Y24885658D01*
X182809523Y24885658D02*
X182809523Y25695181D01*
X183761904Y25695181D02*
X183285714Y25695181D01*
X183285714Y25695181D02*
X183238095Y25218991D01*
X183238095Y25218991D02*
X183285714Y25266610D01*
X183285714Y25266610D02*
X183380952Y25314229D01*
X183380952Y25314229D02*
X183619047Y25314229D01*
X183619047Y25314229D02*
X183714285Y25266610D01*
X183714285Y25266610D02*
X183761904Y25218991D01*
X183761904Y25218991D02*
X183809523Y25123753D01*
X183809523Y25123753D02*
X183809523Y24885658D01*
X183809523Y24885658D02*
X183761904Y24790420D01*
X183761904Y24790420D02*
X183714285Y24742800D01*
X183714285Y24742800D02*
X183619047Y24695181D01*
X183619047Y24695181D02*
X183380952Y24695181D01*
X183380952Y24695181D02*
X183285714Y24742800D01*
X183285714Y24742800D02*
X183238095Y24790420D01*
X125059580Y24033334D02*
X125107200Y23985715D01*
X125107200Y23985715D02*
X125154819Y23842858D01*
X125154819Y23842858D02*
X125154819Y23747620D01*
X125154819Y23747620D02*
X125107200Y23604763D01*
X125107200Y23604763D02*
X125011961Y23509525D01*
X125011961Y23509525D02*
X124916723Y23461906D01*
X124916723Y23461906D02*
X124726247Y23414287D01*
X124726247Y23414287D02*
X124583390Y23414287D01*
X124583390Y23414287D02*
X124392914Y23461906D01*
X124392914Y23461906D02*
X124297676Y23509525D01*
X124297676Y23509525D02*
X124202438Y23604763D01*
X124202438Y23604763D02*
X124154819Y23747620D01*
X124154819Y23747620D02*
X124154819Y23842858D01*
X124154819Y23842858D02*
X124202438Y23985715D01*
X124202438Y23985715D02*
X124250057Y24033334D01*
X124250057Y24414287D02*
X124202438Y24461906D01*
X124202438Y24461906D02*
X124154819Y24557144D01*
X124154819Y24557144D02*
X124154819Y24795239D01*
X124154819Y24795239D02*
X124202438Y24890477D01*
X124202438Y24890477D02*
X124250057Y24938096D01*
X124250057Y24938096D02*
X124345295Y24985715D01*
X124345295Y24985715D02*
X124440533Y24985715D01*
X124440533Y24985715D02*
X124583390Y24938096D01*
X124583390Y24938096D02*
X125154819Y24366668D01*
X125154819Y24366668D02*
X125154819Y24985715D01*
X62554819Y82761906D02*
X63364342Y82761906D01*
X63364342Y82761906D02*
X63459580Y82809525D01*
X63459580Y82809525D02*
X63507200Y82857144D01*
X63507200Y82857144D02*
X63554819Y82952382D01*
X63554819Y82952382D02*
X63554819Y83142858D01*
X63554819Y83142858D02*
X63507200Y83238096D01*
X63507200Y83238096D02*
X63459580Y83285715D01*
X63459580Y83285715D02*
X63364342Y83333334D01*
X63364342Y83333334D02*
X62554819Y83333334D01*
X63554819Y84333334D02*
X63554819Y83761906D01*
X63554819Y84047620D02*
X62554819Y84047620D01*
X62554819Y84047620D02*
X62697676Y83952382D01*
X62697676Y83952382D02*
X62792914Y83857144D01*
X62792914Y83857144D02*
X62840533Y83761906D01*
X63554819Y84809525D02*
X63554819Y85000001D01*
X63554819Y85000001D02*
X63507200Y85095239D01*
X63507200Y85095239D02*
X63459580Y85142858D01*
X63459580Y85142858D02*
X63316723Y85238096D01*
X63316723Y85238096D02*
X63126247Y85285715D01*
X63126247Y85285715D02*
X62745295Y85285715D01*
X62745295Y85285715D02*
X62650057Y85238096D01*
X62650057Y85238096D02*
X62602438Y85190477D01*
X62602438Y85190477D02*
X62554819Y85095239D01*
X62554819Y85095239D02*
X62554819Y84904763D01*
X62554819Y84904763D02*
X62602438Y84809525D01*
X62602438Y84809525D02*
X62650057Y84761906D01*
X62650057Y84761906D02*
X62745295Y84714287D01*
X62745295Y84714287D02*
X62983390Y84714287D01*
X62983390Y84714287D02*
X63078628Y84761906D01*
X63078628Y84761906D02*
X63126247Y84809525D01*
X63126247Y84809525D02*
X63173866Y84904763D01*
X63173866Y84904763D02*
X63173866Y85095239D01*
X63173866Y85095239D02*
X63126247Y85190477D01*
X63126247Y85190477D02*
X63078628Y85238096D01*
X63078628Y85238096D02*
X62983390Y85285715D01*
X75590476Y66938991D02*
X75733333Y66891372D01*
X75733333Y66891372D02*
X75780952Y66843753D01*
X75780952Y66843753D02*
X75828571Y66748515D01*
X75828571Y66748515D02*
X75828571Y66605658D01*
X75828571Y66605658D02*
X75780952Y66510420D01*
X75780952Y66510420D02*
X75733333Y66462800D01*
X75733333Y66462800D02*
X75638095Y66415181D01*
X75638095Y66415181D02*
X75257143Y66415181D01*
X75257143Y66415181D02*
X75257143Y67415181D01*
X75257143Y67415181D02*
X75590476Y67415181D01*
X75590476Y67415181D02*
X75685714Y67367562D01*
X75685714Y67367562D02*
X75733333Y67319943D01*
X75733333Y67319943D02*
X75780952Y67224705D01*
X75780952Y67224705D02*
X75780952Y67129467D01*
X75780952Y67129467D02*
X75733333Y67034229D01*
X75733333Y67034229D02*
X75685714Y66986610D01*
X75685714Y66986610D02*
X75590476Y66938991D01*
X75590476Y66938991D02*
X75257143Y66938991D01*
X76257143Y66415181D02*
X76257143Y67081848D01*
X76257143Y66891372D02*
X76304762Y66986610D01*
X76304762Y66986610D02*
X76352381Y67034229D01*
X76352381Y67034229D02*
X76447619Y67081848D01*
X76447619Y67081848D02*
X76542857Y67081848D01*
X76876191Y66415181D02*
X76876191Y67081848D01*
X76876191Y67415181D02*
X76828572Y67367562D01*
X76828572Y67367562D02*
X76876191Y67319943D01*
X76876191Y67319943D02*
X76923810Y67367562D01*
X76923810Y67367562D02*
X76876191Y67415181D01*
X76876191Y67415181D02*
X76876191Y67319943D01*
X77780952Y66415181D02*
X77780952Y67415181D01*
X77780952Y66462800D02*
X77685714Y66415181D01*
X77685714Y66415181D02*
X77495238Y66415181D01*
X77495238Y66415181D02*
X77400000Y66462800D01*
X77400000Y66462800D02*
X77352381Y66510420D01*
X77352381Y66510420D02*
X77304762Y66605658D01*
X77304762Y66605658D02*
X77304762Y66891372D01*
X77304762Y66891372D02*
X77352381Y66986610D01*
X77352381Y66986610D02*
X77400000Y67034229D01*
X77400000Y67034229D02*
X77495238Y67081848D01*
X77495238Y67081848D02*
X77685714Y67081848D01*
X77685714Y67081848D02*
X77780952Y67034229D01*
X78685714Y67081848D02*
X78685714Y66272324D01*
X78685714Y66272324D02*
X78638095Y66177086D01*
X78638095Y66177086D02*
X78590476Y66129467D01*
X78590476Y66129467D02*
X78495238Y66081848D01*
X78495238Y66081848D02*
X78352381Y66081848D01*
X78352381Y66081848D02*
X78257143Y66129467D01*
X78685714Y66462800D02*
X78590476Y66415181D01*
X78590476Y66415181D02*
X78400000Y66415181D01*
X78400000Y66415181D02*
X78304762Y66462800D01*
X78304762Y66462800D02*
X78257143Y66510420D01*
X78257143Y66510420D02*
X78209524Y66605658D01*
X78209524Y66605658D02*
X78209524Y66891372D01*
X78209524Y66891372D02*
X78257143Y66986610D01*
X78257143Y66986610D02*
X78304762Y67034229D01*
X78304762Y67034229D02*
X78400000Y67081848D01*
X78400000Y67081848D02*
X78590476Y67081848D01*
X78590476Y67081848D02*
X78685714Y67034229D01*
X79542857Y66462800D02*
X79447619Y66415181D01*
X79447619Y66415181D02*
X79257143Y66415181D01*
X79257143Y66415181D02*
X79161905Y66462800D01*
X79161905Y66462800D02*
X79114286Y66558039D01*
X79114286Y66558039D02*
X79114286Y66938991D01*
X79114286Y66938991D02*
X79161905Y67034229D01*
X79161905Y67034229D02*
X79257143Y67081848D01*
X79257143Y67081848D02*
X79447619Y67081848D01*
X79447619Y67081848D02*
X79542857Y67034229D01*
X79542857Y67034229D02*
X79590476Y66938991D01*
X79590476Y66938991D02*
X79590476Y66843753D01*
X79590476Y66843753D02*
X79114286Y66748515D01*
X123561009Y11794286D02*
X123608628Y11937143D01*
X123608628Y11937143D02*
X123656247Y11984762D01*
X123656247Y11984762D02*
X123751485Y12032381D01*
X123751485Y12032381D02*
X123894342Y12032381D01*
X123894342Y12032381D02*
X123989580Y11984762D01*
X123989580Y11984762D02*
X124037200Y11937143D01*
X124037200Y11937143D02*
X124084819Y11841905D01*
X124084819Y11841905D02*
X124084819Y11460953D01*
X124084819Y11460953D02*
X123084819Y11460953D01*
X123084819Y11460953D02*
X123084819Y11794286D01*
X123084819Y11794286D02*
X123132438Y11889524D01*
X123132438Y11889524D02*
X123180057Y11937143D01*
X123180057Y11937143D02*
X123275295Y11984762D01*
X123275295Y11984762D02*
X123370533Y11984762D01*
X123370533Y11984762D02*
X123465771Y11937143D01*
X123465771Y11937143D02*
X123513390Y11889524D01*
X123513390Y11889524D02*
X123561009Y11794286D01*
X123561009Y11794286D02*
X123561009Y11460953D01*
X124084819Y12460953D02*
X123418152Y12460953D01*
X123608628Y12460953D02*
X123513390Y12508572D01*
X123513390Y12508572D02*
X123465771Y12556191D01*
X123465771Y12556191D02*
X123418152Y12651429D01*
X123418152Y12651429D02*
X123418152Y12746667D01*
X124084819Y13080001D02*
X123418152Y13080001D01*
X123084819Y13080001D02*
X123132438Y13032382D01*
X123132438Y13032382D02*
X123180057Y13080001D01*
X123180057Y13080001D02*
X123132438Y13127620D01*
X123132438Y13127620D02*
X123084819Y13080001D01*
X123084819Y13080001D02*
X123180057Y13080001D01*
X124084819Y13984762D02*
X123084819Y13984762D01*
X124037200Y13984762D02*
X124084819Y13889524D01*
X124084819Y13889524D02*
X124084819Y13699048D01*
X124084819Y13699048D02*
X124037200Y13603810D01*
X124037200Y13603810D02*
X123989580Y13556191D01*
X123989580Y13556191D02*
X123894342Y13508572D01*
X123894342Y13508572D02*
X123608628Y13508572D01*
X123608628Y13508572D02*
X123513390Y13556191D01*
X123513390Y13556191D02*
X123465771Y13603810D01*
X123465771Y13603810D02*
X123418152Y13699048D01*
X123418152Y13699048D02*
X123418152Y13889524D01*
X123418152Y13889524D02*
X123465771Y13984762D01*
X123418152Y14889524D02*
X124227676Y14889524D01*
X124227676Y14889524D02*
X124322914Y14841905D01*
X124322914Y14841905D02*
X124370533Y14794286D01*
X124370533Y14794286D02*
X124418152Y14699048D01*
X124418152Y14699048D02*
X124418152Y14556191D01*
X124418152Y14556191D02*
X124370533Y14460953D01*
X124037200Y14889524D02*
X124084819Y14794286D01*
X124084819Y14794286D02*
X124084819Y14603810D01*
X124084819Y14603810D02*
X124037200Y14508572D01*
X124037200Y14508572D02*
X123989580Y14460953D01*
X123989580Y14460953D02*
X123894342Y14413334D01*
X123894342Y14413334D02*
X123608628Y14413334D01*
X123608628Y14413334D02*
X123513390Y14460953D01*
X123513390Y14460953D02*
X123465771Y14508572D01*
X123465771Y14508572D02*
X123418152Y14603810D01*
X123418152Y14603810D02*
X123418152Y14794286D01*
X123418152Y14794286D02*
X123465771Y14889524D01*
X124037200Y15746667D02*
X124084819Y15651429D01*
X124084819Y15651429D02*
X124084819Y15460953D01*
X124084819Y15460953D02*
X124037200Y15365715D01*
X124037200Y15365715D02*
X123941961Y15318096D01*
X123941961Y15318096D02*
X123561009Y15318096D01*
X123561009Y15318096D02*
X123465771Y15365715D01*
X123465771Y15365715D02*
X123418152Y15460953D01*
X123418152Y15460953D02*
X123418152Y15651429D01*
X123418152Y15651429D02*
X123465771Y15746667D01*
X123465771Y15746667D02*
X123561009Y15794286D01*
X123561009Y15794286D02*
X123656247Y15794286D01*
X123656247Y15794286D02*
X123751485Y15318096D01*
X123084819Y16651429D02*
X123084819Y16460953D01*
X123084819Y16460953D02*
X123132438Y16365715D01*
X123132438Y16365715D02*
X123180057Y16318096D01*
X123180057Y16318096D02*
X123322914Y16222858D01*
X123322914Y16222858D02*
X123513390Y16175239D01*
X123513390Y16175239D02*
X123894342Y16175239D01*
X123894342Y16175239D02*
X123989580Y16222858D01*
X123989580Y16222858D02*
X124037200Y16270477D01*
X124037200Y16270477D02*
X124084819Y16365715D01*
X124084819Y16365715D02*
X124084819Y16556191D01*
X124084819Y16556191D02*
X124037200Y16651429D01*
X124037200Y16651429D02*
X123989580Y16699048D01*
X123989580Y16699048D02*
X123894342Y16746667D01*
X123894342Y16746667D02*
X123656247Y16746667D01*
X123656247Y16746667D02*
X123561009Y16699048D01*
X123561009Y16699048D02*
X123513390Y16651429D01*
X123513390Y16651429D02*
X123465771Y16556191D01*
X123465771Y16556191D02*
X123465771Y16365715D01*
X123465771Y16365715D02*
X123513390Y16270477D01*
X123513390Y16270477D02*
X123561009Y16222858D01*
X123561009Y16222858D02*
X123656247Y16175239D01*
X131061009Y11794286D02*
X131108628Y11937143D01*
X131108628Y11937143D02*
X131156247Y11984762D01*
X131156247Y11984762D02*
X131251485Y12032381D01*
X131251485Y12032381D02*
X131394342Y12032381D01*
X131394342Y12032381D02*
X131489580Y11984762D01*
X131489580Y11984762D02*
X131537200Y11937143D01*
X131537200Y11937143D02*
X131584819Y11841905D01*
X131584819Y11841905D02*
X131584819Y11460953D01*
X131584819Y11460953D02*
X130584819Y11460953D01*
X130584819Y11460953D02*
X130584819Y11794286D01*
X130584819Y11794286D02*
X130632438Y11889524D01*
X130632438Y11889524D02*
X130680057Y11937143D01*
X130680057Y11937143D02*
X130775295Y11984762D01*
X130775295Y11984762D02*
X130870533Y11984762D01*
X130870533Y11984762D02*
X130965771Y11937143D01*
X130965771Y11937143D02*
X131013390Y11889524D01*
X131013390Y11889524D02*
X131061009Y11794286D01*
X131061009Y11794286D02*
X131061009Y11460953D01*
X131584819Y12460953D02*
X130918152Y12460953D01*
X131108628Y12460953D02*
X131013390Y12508572D01*
X131013390Y12508572D02*
X130965771Y12556191D01*
X130965771Y12556191D02*
X130918152Y12651429D01*
X130918152Y12651429D02*
X130918152Y12746667D01*
X131584819Y13080001D02*
X130918152Y13080001D01*
X130584819Y13080001D02*
X130632438Y13032382D01*
X130632438Y13032382D02*
X130680057Y13080001D01*
X130680057Y13080001D02*
X130632438Y13127620D01*
X130632438Y13127620D02*
X130584819Y13080001D01*
X130584819Y13080001D02*
X130680057Y13080001D01*
X131584819Y13984762D02*
X130584819Y13984762D01*
X131537200Y13984762D02*
X131584819Y13889524D01*
X131584819Y13889524D02*
X131584819Y13699048D01*
X131584819Y13699048D02*
X131537200Y13603810D01*
X131537200Y13603810D02*
X131489580Y13556191D01*
X131489580Y13556191D02*
X131394342Y13508572D01*
X131394342Y13508572D02*
X131108628Y13508572D01*
X131108628Y13508572D02*
X131013390Y13556191D01*
X131013390Y13556191D02*
X130965771Y13603810D01*
X130965771Y13603810D02*
X130918152Y13699048D01*
X130918152Y13699048D02*
X130918152Y13889524D01*
X130918152Y13889524D02*
X130965771Y13984762D01*
X130918152Y14889524D02*
X131727676Y14889524D01*
X131727676Y14889524D02*
X131822914Y14841905D01*
X131822914Y14841905D02*
X131870533Y14794286D01*
X131870533Y14794286D02*
X131918152Y14699048D01*
X131918152Y14699048D02*
X131918152Y14556191D01*
X131918152Y14556191D02*
X131870533Y14460953D01*
X131537200Y14889524D02*
X131584819Y14794286D01*
X131584819Y14794286D02*
X131584819Y14603810D01*
X131584819Y14603810D02*
X131537200Y14508572D01*
X131537200Y14508572D02*
X131489580Y14460953D01*
X131489580Y14460953D02*
X131394342Y14413334D01*
X131394342Y14413334D02*
X131108628Y14413334D01*
X131108628Y14413334D02*
X131013390Y14460953D01*
X131013390Y14460953D02*
X130965771Y14508572D01*
X130965771Y14508572D02*
X130918152Y14603810D01*
X130918152Y14603810D02*
X130918152Y14794286D01*
X130918152Y14794286D02*
X130965771Y14889524D01*
X131537200Y15746667D02*
X131584819Y15651429D01*
X131584819Y15651429D02*
X131584819Y15460953D01*
X131584819Y15460953D02*
X131537200Y15365715D01*
X131537200Y15365715D02*
X131441961Y15318096D01*
X131441961Y15318096D02*
X131061009Y15318096D01*
X131061009Y15318096D02*
X130965771Y15365715D01*
X130965771Y15365715D02*
X130918152Y15460953D01*
X130918152Y15460953D02*
X130918152Y15651429D01*
X130918152Y15651429D02*
X130965771Y15746667D01*
X130965771Y15746667D02*
X131061009Y15794286D01*
X131061009Y15794286D02*
X131156247Y15794286D01*
X131156247Y15794286D02*
X131251485Y15318096D01*
X130584819Y16699048D02*
X130584819Y16222858D01*
X130584819Y16222858D02*
X131061009Y16175239D01*
X131061009Y16175239D02*
X131013390Y16222858D01*
X131013390Y16222858D02*
X130965771Y16318096D01*
X130965771Y16318096D02*
X130965771Y16556191D01*
X130965771Y16556191D02*
X131013390Y16651429D01*
X131013390Y16651429D02*
X131061009Y16699048D01*
X131061009Y16699048D02*
X131156247Y16746667D01*
X131156247Y16746667D02*
X131394342Y16746667D01*
X131394342Y16746667D02*
X131489580Y16699048D01*
X131489580Y16699048D02*
X131537200Y16651429D01*
X131537200Y16651429D02*
X131584819Y16556191D01*
X131584819Y16556191D02*
X131584819Y16318096D01*
X131584819Y16318096D02*
X131537200Y16222858D01*
X131537200Y16222858D02*
X131489580Y16175239D01*
X145738095Y44445181D02*
X145738095Y43635658D01*
X145738095Y43635658D02*
X145785714Y43540420D01*
X145785714Y43540420D02*
X145833333Y43492800D01*
X145833333Y43492800D02*
X145928571Y43445181D01*
X145928571Y43445181D02*
X146119047Y43445181D01*
X146119047Y43445181D02*
X146214285Y43492800D01*
X146214285Y43492800D02*
X146261904Y43540420D01*
X146261904Y43540420D02*
X146309523Y43635658D01*
X146309523Y43635658D02*
X146309523Y44445181D01*
X147214285Y44111848D02*
X147214285Y43445181D01*
X146976190Y44492800D02*
X146738095Y43778515D01*
X146738095Y43778515D02*
X147357142Y43778515D01*
X5359580Y47357143D02*
X5407200Y47309524D01*
X5407200Y47309524D02*
X5454819Y47166667D01*
X5454819Y47166667D02*
X5454819Y47071429D01*
X5454819Y47071429D02*
X5407200Y46928572D01*
X5407200Y46928572D02*
X5311961Y46833334D01*
X5311961Y46833334D02*
X5216723Y46785715D01*
X5216723Y46785715D02*
X5026247Y46738096D01*
X5026247Y46738096D02*
X4883390Y46738096D01*
X4883390Y46738096D02*
X4692914Y46785715D01*
X4692914Y46785715D02*
X4597676Y46833334D01*
X4597676Y46833334D02*
X4502438Y46928572D01*
X4502438Y46928572D02*
X4454819Y47071429D01*
X4454819Y47071429D02*
X4454819Y47166667D01*
X4454819Y47166667D02*
X4502438Y47309524D01*
X4502438Y47309524D02*
X4550057Y47357143D01*
X5454819Y48309524D02*
X5454819Y47738096D01*
X5454819Y48023810D02*
X4454819Y48023810D01*
X4454819Y48023810D02*
X4597676Y47928572D01*
X4597676Y47928572D02*
X4692914Y47833334D01*
X4692914Y47833334D02*
X4740533Y47738096D01*
X4454819Y48642858D02*
X4454819Y49261905D01*
X4454819Y49261905D02*
X4835771Y48928572D01*
X4835771Y48928572D02*
X4835771Y49071429D01*
X4835771Y49071429D02*
X4883390Y49166667D01*
X4883390Y49166667D02*
X4931009Y49214286D01*
X4931009Y49214286D02*
X5026247Y49261905D01*
X5026247Y49261905D02*
X5264342Y49261905D01*
X5264342Y49261905D02*
X5359580Y49214286D01*
X5359580Y49214286D02*
X5407200Y49166667D01*
X5407200Y49166667D02*
X5454819Y49071429D01*
X5454819Y49071429D02*
X5454819Y48785715D01*
X5454819Y48785715D02*
X5407200Y48690477D01*
X5407200Y48690477D02*
X5359580Y48642858D01*
X4238095Y98545181D02*
X4238095Y99545181D01*
X4238095Y99068991D02*
X4809523Y99068991D01*
X4809523Y98545181D02*
X4809523Y99545181D01*
X5809523Y98545181D02*
X5238095Y98545181D01*
X5523809Y98545181D02*
X5523809Y99545181D01*
X5523809Y99545181D02*
X5428571Y99402324D01*
X5428571Y99402324D02*
X5333333Y99307086D01*
X5333333Y99307086D02*
X5238095Y99259467D01*
X201238095Y98545181D02*
X201238095Y99545181D01*
X201238095Y99068991D02*
X201809523Y99068991D01*
X201809523Y98545181D02*
X201809523Y99545181D01*
X202190476Y99545181D02*
X202809523Y99545181D01*
X202809523Y99545181D02*
X202476190Y99164229D01*
X202476190Y99164229D02*
X202619047Y99164229D01*
X202619047Y99164229D02*
X202714285Y99116610D01*
X202714285Y99116610D02*
X202761904Y99068991D01*
X202761904Y99068991D02*
X202809523Y98973753D01*
X202809523Y98973753D02*
X202809523Y98735658D01*
X202809523Y98735658D02*
X202761904Y98640420D01*
X202761904Y98640420D02*
X202714285Y98592800D01*
X202714285Y98592800D02*
X202619047Y98545181D01*
X202619047Y98545181D02*
X202333333Y98545181D01*
X202333333Y98545181D02*
X202238095Y98592800D01*
X202238095Y98592800D02*
X202190476Y98640420D01*
D12*
%TO.C,C4*%
X70130000Y86120000D02*
X70130000Y75880000D01*
X72870000Y86120000D02*
X70130000Y86120000D01*
X72870000Y86120000D02*
X72870000Y75880000D01*
X72870000Y75880000D02*
X70130000Y75880000D01*
%TO.C,U14*%
X146590000Y37560000D02*
X146590000Y27440000D01*
X146590000Y27440000D02*
X151310000Y27440000D01*
X147200000Y36950000D02*
X147200000Y28050000D01*
X147200000Y34600000D02*
X147700000Y34600000D01*
X147200000Y34500000D02*
X147700000Y34500000D01*
X147200000Y32600000D02*
X147700000Y32600000D01*
X147200000Y32500000D02*
X147700000Y32500000D01*
X147200000Y30600000D02*
X147700000Y30600000D01*
X147200000Y30500000D02*
X147700000Y30500000D01*
X147200000Y28050000D02*
X150700000Y28050000D01*
X147700000Y34600000D02*
X147700000Y34400000D01*
X147700000Y34400000D02*
X147200000Y34400000D01*
X147700000Y32600000D02*
X147700000Y32400000D01*
X147700000Y32400000D02*
X147200000Y32400000D01*
X147700000Y30600000D02*
X147700000Y30400000D01*
X147700000Y30400000D02*
X147200000Y30400000D01*
X148700000Y37560000D02*
X148700000Y36950000D01*
X148700000Y27440000D02*
X148700000Y28050000D01*
X150000000Y37560000D02*
X150000000Y36950000D01*
X150000000Y27440000D02*
X150000000Y28050000D01*
X150700000Y36950000D02*
X147200000Y36950000D01*
X150700000Y35000000D02*
X150700000Y36950000D01*
X150700000Y30000000D02*
X151310000Y30000000D01*
X150700000Y28050000D02*
X150700000Y30000000D01*
X151310000Y37560000D02*
X146590000Y37560000D01*
X151310000Y35800000D02*
X151510000Y35800000D01*
X151310000Y35000000D02*
X150700000Y35000000D01*
X151310000Y27440000D02*
X151310000Y37560000D01*
X151410000Y35800000D02*
X151410000Y36100000D01*
X151510000Y36100000D02*
X151310000Y36100000D01*
X151510000Y35800000D02*
X151510000Y36100000D01*
X151610000Y37860000D02*
X150360000Y37860000D01*
X151610000Y36610000D02*
X151610000Y37860000D01*
%TO.C,Bridge7*%
X175630000Y38350000D02*
X175630000Y31810000D01*
X175630000Y31810000D02*
X178370000Y31810000D01*
X177000000Y39120000D02*
X177000000Y38350000D01*
X177000000Y31040000D02*
X177000000Y31810000D01*
X178370000Y38350000D02*
X175630000Y38350000D01*
X178370000Y31810000D02*
X178370000Y38350000D01*
%TO.C,U6*%
X162045000Y97605000D02*
X163375000Y97605000D01*
X162045000Y96275000D02*
X162045000Y97605000D01*
X164645000Y97605000D02*
X182485000Y97605000D01*
X164645000Y94945000D02*
X164645000Y97605000D01*
X164645000Y94945000D02*
X182485000Y94945000D01*
X182485000Y94945000D02*
X182485000Y97605000D01*
%TO.C,REF\u002A\u002A*%
D11*
X58800000Y78000000D02*
X51200000Y78000000D01*
X51200000Y90000000D01*
X58800000Y90000000D01*
X58800000Y78000000D01*
D12*
%TO.C,U16*%
X99770000Y69230000D02*
X99770000Y61550000D01*
X99770000Y69230000D02*
X102430000Y69230000D01*
X99770000Y61550000D02*
X102430000Y61550000D01*
X101100000Y71830000D02*
X102430000Y71830000D01*
X102430000Y71830000D02*
X102430000Y70500000D01*
X102430000Y69230000D02*
X102430000Y61550000D01*
D10*
%TO.C,JP1*%
X55220000Y49570000D02*
X55720000Y50070000D01*
X55220000Y48770000D02*
X55220000Y49570000D01*
X55720000Y50070000D02*
X59320000Y50070000D01*
X55720000Y48270000D02*
X55220000Y48770000D01*
X59320000Y50070000D02*
X59820000Y49570000D01*
X59320000Y48270000D02*
X55720000Y48270000D01*
X59820000Y49570000D02*
X59820000Y48770000D01*
X59820000Y48770000D02*
X59320000Y48270000D01*
D12*
%TO.C,C5*%
X136130000Y29320000D02*
X136130000Y19080000D01*
X138870000Y29320000D02*
X136130000Y29320000D01*
X138870000Y29320000D02*
X138870000Y19080000D01*
X138870000Y19080000D02*
X136130000Y19080000D01*
%TO.C,SW1*%
X172645000Y16020000D02*
X172645000Y18620000D01*
X172645000Y13420000D02*
X172645000Y14750000D01*
X173975000Y13420000D02*
X172645000Y13420000D01*
X175305000Y18620000D02*
X172645000Y18620000D01*
X175305000Y16020000D02*
X172645000Y16020000D01*
X175305000Y16020000D02*
X175305000Y18620000D01*
%TO.C,Bridge1*%
X139630000Y38350000D02*
X139630000Y31810000D01*
X139630000Y31810000D02*
X142370000Y31810000D01*
X141000000Y39120000D02*
X141000000Y38350000D01*
X141000000Y31040000D02*
X141000000Y31810000D01*
X142370000Y38350000D02*
X139630000Y38350000D01*
X142370000Y31810000D02*
X142370000Y38350000D01*
%TO.C,U12*%
X164170000Y39340000D02*
X164170000Y24040000D01*
X164170000Y39340000D02*
X166830000Y39340000D01*
X164170000Y24040000D02*
X166830000Y24040000D01*
X165500000Y41940000D02*
X166830000Y41940000D01*
X166830000Y41940000D02*
X166830000Y40610000D01*
X166830000Y39340000D02*
X166830000Y24040000D01*
%TO.C,U13*%
X128590000Y38060000D02*
X128590000Y27940000D01*
X128590000Y27940000D02*
X133310000Y27940000D01*
X129200000Y37450000D02*
X129200000Y28550000D01*
X129200000Y35100000D02*
X129700000Y35100000D01*
X129200000Y35000000D02*
X129700000Y35000000D01*
X129200000Y33100000D02*
X129700000Y33100000D01*
X129200000Y33000000D02*
X129700000Y33000000D01*
X129200000Y31100000D02*
X129700000Y31100000D01*
X129200000Y31000000D02*
X129700000Y31000000D01*
X129200000Y28550000D02*
X132700000Y28550000D01*
X129700000Y35100000D02*
X129700000Y34900000D01*
X129700000Y34900000D02*
X129200000Y34900000D01*
X129700000Y33100000D02*
X129700000Y32900000D01*
X129700000Y32900000D02*
X129200000Y32900000D01*
X129700000Y31100000D02*
X129700000Y30900000D01*
X129700000Y30900000D02*
X129200000Y30900000D01*
X130700000Y38060000D02*
X130700000Y37450000D01*
X130700000Y27940000D02*
X130700000Y28550000D01*
X132000000Y38060000D02*
X132000000Y37450000D01*
X132000000Y27940000D02*
X132000000Y28550000D01*
X132700000Y37450000D02*
X129200000Y37450000D01*
X132700000Y35500000D02*
X132700000Y37450000D01*
X132700000Y30500000D02*
X133310000Y30500000D01*
X132700000Y28550000D02*
X132700000Y30500000D01*
X133310000Y38060000D02*
X128590000Y38060000D01*
X133310000Y36300000D02*
X133510000Y36300000D01*
X133310000Y35500000D02*
X132700000Y35500000D01*
X133310000Y27940000D02*
X133310000Y38060000D01*
X133410000Y36300000D02*
X133410000Y36600000D01*
X133510000Y36600000D02*
X133310000Y36600000D01*
X133510000Y36300000D02*
X133510000Y36600000D01*
X133610000Y38360000D02*
X132360000Y38360000D01*
X133610000Y37110000D02*
X133610000Y38360000D01*
%TO.C,C1*%
X110530000Y29290000D02*
X110530000Y19050000D01*
X113270000Y29290000D02*
X110530000Y29290000D01*
X113270000Y29290000D02*
X113270000Y19050000D01*
X113270000Y19050000D02*
X110530000Y19050000D01*
D11*
%TO.C,U9*%
X10330000Y56040000D02*
X13830000Y56040000D01*
X10330000Y42740000D02*
X10330000Y56040000D01*
X13830000Y42740000D02*
X10330000Y42740000D01*
X39830000Y42740000D02*
X43330000Y42740000D01*
X43330000Y56040000D02*
X39830000Y56040000D01*
X43330000Y42740000D02*
X43330000Y56040000D01*
X13830000Y59540000D02*
X39830000Y59540000D01*
X39830000Y39540000D01*
X13830000Y39540000D01*
X13830000Y59540000D01*
D12*
%TO.C,Bridge1*%
X111330000Y39350000D02*
X111330000Y32810000D01*
X111330000Y32810000D02*
X114070000Y32810000D01*
X112700000Y40120000D02*
X112700000Y39350000D01*
X112700000Y32040000D02*
X112700000Y32810000D01*
X114070000Y39350000D02*
X111330000Y39350000D01*
X114070000Y32810000D02*
X114070000Y39350000D01*
%TO.C,C3*%
X154330000Y29320000D02*
X154330000Y19080000D01*
X157070000Y29320000D02*
X154330000Y29320000D01*
X157070000Y29320000D02*
X157070000Y19080000D01*
X157070000Y19080000D02*
X154330000Y19080000D01*
%TO.C,U2*%
X144550000Y74580000D02*
X144550000Y71920000D01*
X167470000Y74580000D02*
X144550000Y74580000D01*
X167470000Y74580000D02*
X167470000Y71920000D01*
X167470000Y71920000D02*
X144550000Y71920000D01*
X170070000Y73250000D02*
X170070000Y71920000D01*
X170070000Y71920000D02*
X168740000Y71920000D01*
%TO.C,R2*%
X75000000Y28040000D02*
X75000000Y27270000D01*
X75000000Y19960000D02*
X75000000Y20730000D01*
X76370000Y27270000D02*
X73630000Y27270000D01*
X73630000Y20730000D01*
X76370000Y20730000D01*
X76370000Y27270000D01*
%TO.C,U1*%
X80645000Y39612500D02*
X80645000Y16692500D01*
X80645000Y39612500D02*
X83305000Y39612500D01*
X80645000Y16692500D02*
X83305000Y16692500D01*
X81975000Y42212500D02*
X83305000Y42212500D01*
X83305000Y42212500D02*
X83305000Y40882500D01*
X83305000Y39612500D02*
X83305000Y16692500D01*
X103645000Y42382500D02*
X103645000Y16692500D01*
X103645000Y42382500D02*
X106305000Y42382500D01*
X103645000Y16692500D02*
X106305000Y16692500D01*
X106305000Y42382500D02*
X106305000Y16692500D01*
%TO.C,U11*%
D11*
X79210000Y102920000D02*
X132210000Y102920000D01*
X132210000Y72920000D01*
X79210000Y72920000D01*
X79210000Y102920000D01*
X132210000Y102920000D02*
X138310000Y102920000D01*
X138310000Y88990000D01*
X132210000Y88990000D01*
X132210000Y102920000D01*
D12*
%TO.C,Bridge1*%
X124630000Y38350000D02*
X124630000Y31810000D01*
X124630000Y31810000D02*
X127370000Y31810000D01*
X126000000Y39120000D02*
X126000000Y38350000D01*
X126000000Y31040000D02*
X126000000Y31810000D01*
X127370000Y38350000D02*
X124630000Y38350000D01*
X127370000Y31810000D02*
X127370000Y38350000D01*
%TO.C,U17*%
X107670000Y69230000D02*
X107670000Y61550000D01*
X107670000Y69230000D02*
X110330000Y69230000D01*
X107670000Y61550000D02*
X110330000Y61550000D01*
X109000000Y71830000D02*
X110330000Y71830000D01*
X110330000Y71830000D02*
X110330000Y70500000D01*
X110330000Y69230000D02*
X110330000Y61550000D01*
%TO.C,Bridge3*%
X158130000Y62850000D02*
X158130000Y56310000D01*
X158130000Y56310000D02*
X160870000Y56310000D01*
X159500000Y63620000D02*
X159500000Y62850000D01*
X159500000Y55540000D02*
X159500000Y56310000D01*
X160870000Y62850000D02*
X158130000Y62850000D01*
X160870000Y56310000D02*
X160870000Y62850000D01*
%TO.C,Bridge5*%
X67630000Y27270000D02*
X67630000Y20730000D01*
X67630000Y20730000D02*
X70370000Y20730000D01*
X69000000Y28040000D02*
X69000000Y27270000D01*
X69000000Y19960000D02*
X69000000Y20730000D01*
X70370000Y27270000D02*
X67630000Y27270000D01*
X70370000Y20730000D02*
X70370000Y27270000D01*
%TO.C,U18*%
X115970000Y69230000D02*
X115970000Y61550000D01*
X115970000Y69230000D02*
X118630000Y69230000D01*
X115970000Y61550000D02*
X118630000Y61550000D01*
X117300000Y71830000D02*
X118630000Y71830000D01*
X118630000Y71830000D02*
X118630000Y70500000D01*
X118630000Y69230000D02*
X118630000Y61550000D01*
%TO.C,U15*%
X114770000Y26680000D02*
X114770000Y36900000D01*
X114770000Y24080000D02*
X114770000Y25410000D01*
X116100000Y24080000D02*
X114770000Y24080000D01*
X117430000Y36900000D02*
X114770000Y36900000D01*
X117430000Y26680000D02*
X114770000Y26680000D01*
X117430000Y26680000D02*
X117430000Y36900000D01*
%TO.C,Bridge2*%
X158130000Y38350000D02*
X158130000Y31810000D01*
X158130000Y31810000D02*
X160870000Y31810000D01*
X159500000Y39120000D02*
X159500000Y38350000D01*
X159500000Y31040000D02*
X159500000Y31810000D01*
X160870000Y38350000D02*
X158130000Y38350000D01*
X160870000Y31810000D02*
X160870000Y38350000D01*
%TO.C,Bridge4*%
X135080000Y64600000D02*
X135850000Y64600000D01*
X135850000Y65970000D02*
X135850000Y63230000D01*
X135850000Y63230000D02*
X142390000Y63230000D01*
X142390000Y65970000D02*
X135850000Y65970000D01*
X142390000Y63230000D02*
X142390000Y65970000D01*
X143160000Y64600000D02*
X142390000Y64600000D01*
%TO.C,U10*%
X10380000Y24830000D02*
X10380000Y22170000D01*
X20600000Y24830000D02*
X10380000Y24830000D01*
X20600000Y24830000D02*
X20600000Y22170000D01*
X20600000Y22170000D02*
X10380000Y22170000D01*
X23200000Y23500000D02*
X23200000Y22170000D01*
X23200000Y22170000D02*
X21870000Y22170000D01*
%TO.C,R1*%
X170630000Y38350000D02*
X170630000Y31810000D01*
X170630000Y31810000D02*
X173370000Y31810000D01*
X172000000Y39120000D02*
X172000000Y38350000D01*
X172000000Y31040000D02*
X172000000Y31810000D01*
X173370000Y38350000D02*
X170630000Y38350000D01*
X173370000Y31810000D02*
X173370000Y38350000D01*
%TO.C,U8*%
X190090000Y47060000D02*
X190090000Y36940000D01*
X190090000Y36940000D02*
X194810000Y36940000D01*
X190700000Y46450000D02*
X190700000Y37550000D01*
X190700000Y44100000D02*
X191200000Y44100000D01*
X190700000Y44000000D02*
X191200000Y44000000D01*
X190700000Y42100000D02*
X191200000Y42100000D01*
X190700000Y42000000D02*
X191200000Y42000000D01*
X190700000Y40100000D02*
X191200000Y40100000D01*
X190700000Y40000000D02*
X191200000Y40000000D01*
X190700000Y37550000D02*
X194200000Y37550000D01*
X191200000Y44100000D02*
X191200000Y43900000D01*
X191200000Y43900000D02*
X190700000Y43900000D01*
X191200000Y42100000D02*
X191200000Y41900000D01*
X191200000Y41900000D02*
X190700000Y41900000D01*
X191200000Y40100000D02*
X191200000Y39900000D01*
X191200000Y39900000D02*
X190700000Y39900000D01*
X192200000Y47060000D02*
X192200000Y46450000D01*
X192200000Y36940000D02*
X192200000Y37550000D01*
X193500000Y47060000D02*
X193500000Y46450000D01*
X193500000Y36940000D02*
X193500000Y37550000D01*
X194200000Y46450000D02*
X190700000Y46450000D01*
X194200000Y44500000D02*
X194200000Y46450000D01*
X194200000Y39500000D02*
X194810000Y39500000D01*
X194200000Y37550000D02*
X194200000Y39500000D01*
X194810000Y47060000D02*
X190090000Y47060000D01*
X194810000Y45300000D02*
X195010000Y45300000D01*
X194810000Y44500000D02*
X194200000Y44500000D01*
X194810000Y36940000D02*
X194810000Y47060000D01*
X194910000Y45300000D02*
X194910000Y45600000D01*
X195010000Y45600000D02*
X194810000Y45600000D01*
X195010000Y45300000D02*
X195010000Y45600000D01*
X195110000Y47360000D02*
X193860000Y47360000D01*
X195110000Y46110000D02*
X195110000Y47360000D01*
%TO.C,U5*%
X181670000Y29190000D02*
X181670000Y44490000D01*
X181670000Y26590000D02*
X181670000Y27920000D01*
X183000000Y26590000D02*
X181670000Y26590000D01*
X184330000Y44490000D02*
X181670000Y44490000D01*
X184330000Y29190000D02*
X181670000Y29190000D01*
X184330000Y29190000D02*
X184330000Y44490000D01*
%TO.C,C2*%
X120830000Y29320000D02*
X120830000Y19080000D01*
X123570000Y29320000D02*
X120830000Y29320000D01*
X123570000Y29320000D02*
X123570000Y19080000D01*
X123570000Y19080000D02*
X120830000Y19080000D01*
%TO.C,U19*%
X63890000Y79890000D02*
X63890000Y78640000D01*
X63890000Y78640000D02*
X65140000Y78640000D01*
X63990000Y80700000D02*
X63990000Y80400000D01*
X63990000Y80400000D02*
X64190000Y80400000D01*
X64090000Y80700000D02*
X64090000Y80400000D01*
X64190000Y89060000D02*
X64190000Y78940000D01*
X64190000Y81500000D02*
X64800000Y81500000D01*
X64190000Y80700000D02*
X63990000Y80700000D01*
X64190000Y78940000D02*
X68910000Y78940000D01*
X64800000Y88450000D02*
X64800000Y86500000D01*
X64800000Y86500000D02*
X64190000Y86500000D01*
X64800000Y81500000D02*
X64800000Y79550000D01*
X64800000Y79550000D02*
X68300000Y79550000D01*
X65500000Y89060000D02*
X65500000Y88450000D01*
X65500000Y78940000D02*
X65500000Y79550000D01*
X66800000Y89060000D02*
X66800000Y88450000D01*
X66800000Y78940000D02*
X66800000Y79550000D01*
X67800000Y86100000D02*
X68300000Y86100000D01*
X67800000Y85900000D02*
X67800000Y86100000D01*
X67800000Y84100000D02*
X68300000Y84100000D01*
X67800000Y83900000D02*
X67800000Y84100000D01*
X67800000Y82100000D02*
X68300000Y82100000D01*
X67800000Y81900000D02*
X67800000Y82100000D01*
X68300000Y88450000D02*
X64800000Y88450000D01*
X68300000Y86000000D02*
X67800000Y86000000D01*
X68300000Y85900000D02*
X67800000Y85900000D01*
X68300000Y84000000D02*
X67800000Y84000000D01*
X68300000Y83900000D02*
X67800000Y83900000D01*
X68300000Y82000000D02*
X67800000Y82000000D01*
X68300000Y81900000D02*
X67800000Y81900000D01*
X68300000Y79550000D02*
X68300000Y88450000D01*
X68910000Y89060000D02*
X64190000Y89060000D01*
X68910000Y78940000D02*
X68910000Y89060000D01*
%TO.C,Bridge*%
X73360000Y64500000D02*
X74130000Y64500000D01*
X74130000Y65870000D02*
X74130000Y63130000D01*
X74130000Y63130000D02*
X80670000Y63130000D01*
X80670000Y65870000D02*
X74130000Y65870000D01*
X80670000Y63130000D02*
X80670000Y65870000D01*
X81440000Y64500000D02*
X80670000Y64500000D01*
%TO.C,Bridge6*%
X124630000Y17350000D02*
X124630000Y10810000D01*
X124630000Y10810000D02*
X127370000Y10810000D01*
X126000000Y18120000D02*
X126000000Y17350000D01*
X126000000Y10040000D02*
X126000000Y10810000D01*
X127370000Y17350000D02*
X124630000Y17350000D01*
X127370000Y10810000D02*
X127370000Y17350000D01*
%TO.C,Bridge5*%
X132130000Y17350000D02*
X132130000Y10810000D01*
X132130000Y10810000D02*
X134870000Y10810000D01*
X133500000Y18120000D02*
X133500000Y17350000D01*
X133500000Y10040000D02*
X133500000Y10810000D01*
X134870000Y17350000D02*
X132130000Y17350000D01*
X134870000Y10810000D02*
X134870000Y17350000D01*
%TO.C,U4*%
X145170000Y47940000D02*
X145170000Y60700000D01*
X145170000Y45340000D02*
X145170000Y46670000D01*
X146500000Y45340000D02*
X145170000Y45340000D01*
X147830000Y60700000D02*
X145170000Y60700000D01*
X147830000Y47940000D02*
X145170000Y47940000D01*
X147830000Y47940000D02*
X147830000Y60700000D01*
%TO.C,C13*%
X6130000Y53120000D02*
X8870000Y53120000D01*
X6130000Y42880000D02*
X6130000Y53120000D01*
X6130000Y42880000D02*
X8870000Y42880000D01*
X8870000Y42880000D02*
X8870000Y53120000D01*
%TD*%
%LPC*%
D13*
%TO.C,C4*%
X71500000Y84750000D03*
X71500000Y77250000D03*
%TD*%
D14*
%TO.C,U14*%
X149500000Y35500000D03*
D15*
X149500000Y33500000D03*
X149500000Y31500000D03*
X149500000Y29500000D03*
%TD*%
D16*
%TO.C,Bridge7*%
X177000000Y30000000D03*
D17*
X177000000Y40160000D03*
%TD*%
D18*
%TO.C,H2*%
X5000000Y6000000D03*
%TD*%
D19*
%TO.C,U6*%
X163375000Y96275000D03*
D20*
X165915000Y96275000D03*
X168455000Y96275000D03*
X170995000Y96275000D03*
X173535000Y96275000D03*
X176075000Y96275000D03*
X178615000Y96275000D03*
X181155000Y96275000D03*
%TD*%
D18*
%TO.C,REF\u002A\u002A*%
X49000000Y74000000D03*
X49000000Y94000000D03*
%TD*%
D19*
%TO.C,U16*%
X101100000Y70500000D03*
D20*
X101100000Y67960000D03*
X101100000Y65420000D03*
X101100000Y62880000D03*
%TD*%
D21*
%TO.C,JP1*%
X56250000Y49170000D03*
X58790000Y49170000D03*
%TD*%
D13*
%TO.C,C5*%
X137500000Y27950000D03*
X137500000Y20450000D03*
%TD*%
D18*
%TO.C,H4*%
X202000000Y6000000D03*
%TD*%
D19*
%TO.C,SW1*%
X173975000Y14750000D03*
D20*
X173975000Y17290000D03*
%TD*%
D16*
%TO.C,Bridge1*%
X141000000Y30000000D03*
D17*
X141000000Y40160000D03*
%TD*%
D19*
%TO.C,U12*%
X165500000Y40610000D03*
D20*
X165500000Y38070000D03*
X165500000Y35530000D03*
X165500000Y32990000D03*
X165500000Y30450000D03*
X165500000Y27910000D03*
X165500000Y25370000D03*
%TD*%
D14*
%TO.C,U13*%
X131500000Y36000000D03*
D15*
X131500000Y34000000D03*
X131500000Y32000000D03*
X131500000Y30000000D03*
%TD*%
D13*
%TO.C,C1*%
X111900000Y27920000D03*
X111900000Y20420000D03*
%TD*%
%TO.C,U9*%
X12160000Y51830000D03*
X12160000Y49290000D03*
X12160000Y46750000D03*
X12160000Y44210000D03*
X41500000Y44210000D03*
X41500000Y46750000D03*
X41500000Y49290000D03*
X41500000Y51830000D03*
X41500000Y54370000D03*
%TD*%
D16*
%TO.C,Bridge1*%
X112700000Y31000000D03*
D17*
X112700000Y41160000D03*
%TD*%
D13*
%TO.C,C3*%
X155700000Y27950000D03*
X155700000Y20450000D03*
%TD*%
D19*
%TO.C,U2*%
X168740000Y73250000D03*
D20*
X166200000Y73250000D03*
X163660000Y73250000D03*
X161120000Y73250000D03*
X158580000Y73250000D03*
X156040000Y73250000D03*
X153500000Y73250000D03*
X150960000Y73250000D03*
X148420000Y73250000D03*
X145880000Y73250000D03*
%TD*%
D16*
%TO.C,R2*%
X75000000Y29080000D03*
X75000000Y18920000D03*
%TD*%
D19*
%TO.C,U1*%
X81975000Y40882500D03*
D20*
X81975000Y38342500D03*
X81975000Y35802500D03*
X81975000Y33262500D03*
X81975000Y30722500D03*
X81975000Y28182500D03*
X81975000Y25642500D03*
X81975000Y23102500D03*
X104975000Y23102500D03*
X104975000Y25642500D03*
X104975000Y28182500D03*
X104975000Y30722500D03*
X104975000Y33262500D03*
X104975000Y35802500D03*
X104975000Y38342500D03*
D22*
X104975000Y40882500D03*
D20*
X81975000Y20562500D03*
X81975000Y18022500D03*
X104975000Y18022500D03*
X104975000Y20562500D03*
%TD*%
D13*
%TO.C,U11*%
X82460000Y86170000D03*
X82460000Y76170000D03*
X85000000Y76170000D03*
X85000000Y86170000D03*
X126420000Y86170000D03*
X126420000Y76170000D03*
X128960000Y76170000D03*
X128960000Y86170000D03*
%TD*%
D16*
%TO.C,Bridge1*%
X126000000Y30000000D03*
D17*
X126000000Y40160000D03*
%TD*%
D19*
%TO.C,U17*%
X109000000Y70500000D03*
D20*
X109000000Y67960000D03*
X109000000Y65420000D03*
X109000000Y62880000D03*
%TD*%
D16*
%TO.C,Bridge3*%
X159500000Y54500000D03*
D17*
X159500000Y64660000D03*
%TD*%
D16*
%TO.C,Bridge5*%
X69000000Y18920000D03*
D17*
X69000000Y29080000D03*
%TD*%
D19*
%TO.C,U18*%
X117300000Y70500000D03*
D20*
X117300000Y67960000D03*
X117300000Y65420000D03*
X117300000Y62880000D03*
%TD*%
D19*
%TO.C,U15*%
X116100000Y25410000D03*
D20*
X116100000Y27950000D03*
X116100000Y30490000D03*
X116100000Y33030000D03*
X116100000Y35570000D03*
%TD*%
D16*
%TO.C,Bridge2*%
X159500000Y30000000D03*
D17*
X159500000Y40160000D03*
%TD*%
D16*
%TO.C,Bridge4*%
X134040000Y64600000D03*
D17*
X144200000Y64600000D03*
%TD*%
D19*
%TO.C,U10*%
X21870000Y23500000D03*
D20*
X19330000Y23500000D03*
X16790000Y23500000D03*
X14250000Y23500000D03*
X11710000Y23500000D03*
%TD*%
D16*
%TO.C,R1*%
X172000000Y30000000D03*
D17*
X172000000Y40160000D03*
%TD*%
D14*
%TO.C,U8*%
X193000000Y45000000D03*
D15*
X193000000Y43000000D03*
X193000000Y41000000D03*
X193000000Y39000000D03*
%TD*%
D19*
%TO.C,U5*%
X183000000Y27920000D03*
D20*
X183000000Y30460000D03*
X183000000Y33000000D03*
X183000000Y35540000D03*
X183000000Y38080000D03*
X183000000Y40620000D03*
X183000000Y43160000D03*
%TD*%
D13*
%TO.C,C2*%
X122200000Y27950000D03*
X122200000Y20450000D03*
%TD*%
D23*
%TO.C,U19*%
X66000000Y81000000D03*
D15*
X66000000Y83000000D03*
X66000000Y85000000D03*
X66000000Y87000000D03*
%TD*%
D16*
%TO.C,Bridge*%
X72320000Y64500000D03*
D17*
X82480000Y64500000D03*
%TD*%
D16*
%TO.C,Bridge6*%
X126000000Y9000000D03*
D17*
X126000000Y19160000D03*
%TD*%
D16*
%TO.C,Bridge5*%
X133500000Y9000000D03*
D17*
X133500000Y19160000D03*
%TD*%
D19*
%TO.C,U4*%
X146500000Y46670000D03*
D20*
X146500000Y49210000D03*
X146500000Y51750000D03*
X146500000Y54290000D03*
X146500000Y56830000D03*
X146500000Y59370000D03*
%TD*%
D13*
%TO.C,C13*%
X7500000Y44250000D03*
X7500000Y51750000D03*
%TD*%
D18*
%TO.C,H1*%
X5000000Y102000000D03*
%TD*%
%TO.C,H3*%
X202000000Y102000000D03*
%TD*%
%LPD*%
M02*
