M48
; DRILL file {KiCad 9.0.2} date 2025-06-30T15:50:34+0200
; FORMAT={-:-/ absolute / inch / decimal}
; #@! TF.CreationDate,2025-06-30T15:50:34+02:00
; #@! TF.GenerationSoftware,Kicad,Pcbnew,9.0.2
; #@! TF.FileFunction,Plated,1,2,PTH
FMAT,2
INCH
; #@! TA.AperFunction,Plated,PTH,ComponentDrill
T1C0.0315
; #@! TA.AperFunction,Plated,PTH,ComponentDrill
T2C0.0354
; #@! TA.AperFunction,Plated,PTH,ComponentDrill
T3C0.0394
%
G90
G05
T1
X3.7094Y-2.3228
X3.7094Y-2.9134
X3.8094Y-2.3228
X3.8094Y-2.9134
X3.8717Y-2.0079
X3.8748Y-1.8701
X3.9094Y-2.3228
X3.9094Y-2.9134
X4.0094Y-2.3228
X4.0094Y-2.9134
X4.1094Y-2.3228
X4.1094Y-2.9134
X4.2094Y-2.3228
X4.2094Y-2.9134
X4.2717Y-2.0079
X4.2748Y-1.8701
X4.3094Y-2.3228
X4.3094Y-2.9134
X4.4094Y-2.3228
X4.4094Y-2.9134
X4.5094Y-2.3228
X4.5094Y-2.9134
X4.6094Y-2.3228
X4.6094Y-2.9134
X4.7094Y-2.3228
X4.7094Y-2.9134
X4.8094Y-2.3228
X4.8094Y-2.9134
X4.9094Y-2.3228
X4.9094Y-2.9134
X5.0094Y-2.3228
X5.0094Y-2.9134
X5.1094Y-2.3228
X5.1094Y-2.9134
X5.2094Y-2.3228
X5.2094Y-2.9134
X5.3094Y-2.3228
X5.3094Y-2.9134
X5.4094Y-2.3228
X5.4094Y-2.9134
X5.5094Y-2.3228
X5.5094Y-2.9134
X5.6094Y-2.3228
X5.6094Y-2.9134
X5.7094Y-2.3228
X5.7094Y-2.9134
X5.8094Y-2.3228
X5.8094Y-2.9134
X5.9094Y-2.3228
X5.9094Y-2.9134
X6.0094Y-2.3228
X6.0094Y-2.9134
T2
X5.2713Y-0.9929
X5.2713Y-1.0929
X5.2713Y-1.1929
X5.2713Y-1.2929
X5.2713Y-1.3929
X5.2713Y-1.4929
X5.2713Y-1.5929
X5.2713Y-1.6929
X6.1713Y-0.9929
X6.1713Y-1.0929
X6.1713Y-1.1929
X6.1713Y-1.2929
X6.1713Y-1.3929
X6.1713Y-1.4929
X6.1713Y-1.5929
X6.1713Y-1.6929
T3
X3.9646Y-1.1402
X3.9646Y-1.2402
X3.9646Y-1.3402
X3.9646Y-1.4402
X3.9646Y-1.5402
X3.9646Y-1.6402
X4.0646Y-1.1402
X4.0646Y-1.2402
X4.0646Y-1.3402
X4.0646Y-1.4402
X4.0646Y-1.5402
X4.0646Y-1.6402
X4.6555Y-1.0862
X4.6555Y-1.1862
X4.6555Y-1.2862
X4.6555Y-1.3862
X4.6555Y-1.4862
X4.6555Y-1.5862
M30
