%TF.GenerationSoftware,KiCad,Pcbnew,9.0.2*%
%TF.CreationDate,2025-06-30T15:50:34+02:00*%
%TF.ProjectId,Raumqualitaet_Erweiterung_Mikro,5261756d-7175-4616-9c69-746165745f45,rev?*%
%TF.SameCoordinates,Original*%
%TF.FileFunction,Legend,Top*%
%TF.FilePolarity,Positive*%
%FSLAX46Y46*%
G04 Gerber Fmt 4.6, Leading zero omitted, Abs format (unit mm)*
G04 Created by KiCad (PCBNEW 9.0.2) date 2025-06-30 15:50:34*
%MOMM*%
%LPD*%
G01*
G04 APERTURE LIST*
%ADD10C,0.150000*%
%ADD11C,0.100000*%
%ADD12C,0.120000*%
%ADD13R,1.700000X1.700000*%
%ADD14C,1.700000*%
%ADD15C,2.200000*%
%ADD16O,1.400000X2.200000*%
%ADD17R,2.000000X2.000000*%
%ADD18O,2.000000X1.600000*%
%ADD19C,1.600000*%
%ADD20C,2.000000*%
G04 APERTURE END LIST*
D10*
X117488095Y-42514819D02*
X117488095Y-43324342D01*
X117488095Y-43324342D02*
X117535714Y-43419580D01*
X117535714Y-43419580D02*
X117583333Y-43467200D01*
X117583333Y-43467200D02*
X117678571Y-43514819D01*
X117678571Y-43514819D02*
X117869047Y-43514819D01*
X117869047Y-43514819D02*
X117964285Y-43467200D01*
X117964285Y-43467200D02*
X118011904Y-43419580D01*
X118011904Y-43419580D02*
X118059523Y-43324342D01*
X118059523Y-43324342D02*
X118059523Y-42514819D01*
X118964285Y-42848152D02*
X118964285Y-43514819D01*
X118726190Y-42467200D02*
X118488095Y-43181485D01*
X118488095Y-43181485D02*
X119107142Y-43181485D01*
X161488095Y-72554819D02*
X161488095Y-71554819D01*
X161488095Y-72031009D02*
X162059523Y-72031009D01*
X162059523Y-72554819D02*
X162059523Y-71554819D01*
X162964285Y-71888152D02*
X162964285Y-72554819D01*
X162726190Y-71507200D02*
X162488095Y-72221485D01*
X162488095Y-72221485D02*
X163107142Y-72221485D01*
X91574819Y-67261904D02*
X92384342Y-67261904D01*
X92384342Y-67261904D02*
X92479580Y-67214285D01*
X92479580Y-67214285D02*
X92527200Y-67166666D01*
X92527200Y-67166666D02*
X92574819Y-67071428D01*
X92574819Y-67071428D02*
X92574819Y-66880952D01*
X92574819Y-66880952D02*
X92527200Y-66785714D01*
X92527200Y-66785714D02*
X92479580Y-66738095D01*
X92479580Y-66738095D02*
X92384342Y-66690476D01*
X92384342Y-66690476D02*
X91574819Y-66690476D01*
X91670057Y-66261904D02*
X91622438Y-66214285D01*
X91622438Y-66214285D02*
X91574819Y-66119047D01*
X91574819Y-66119047D02*
X91574819Y-65880952D01*
X91574819Y-65880952D02*
X91622438Y-65785714D01*
X91622438Y-65785714D02*
X91670057Y-65738095D01*
X91670057Y-65738095D02*
X91765295Y-65690476D01*
X91765295Y-65690476D02*
X91860533Y-65690476D01*
X91860533Y-65690476D02*
X92003390Y-65738095D01*
X92003390Y-65738095D02*
X92574819Y-66309523D01*
X92574819Y-66309523D02*
X92574819Y-65690476D01*
X156328095Y-19564819D02*
X156328095Y-20374342D01*
X156328095Y-20374342D02*
X156375714Y-20469580D01*
X156375714Y-20469580D02*
X156423333Y-20517200D01*
X156423333Y-20517200D02*
X156518571Y-20564819D01*
X156518571Y-20564819D02*
X156709047Y-20564819D01*
X156709047Y-20564819D02*
X156804285Y-20517200D01*
X156804285Y-20517200D02*
X156851904Y-20469580D01*
X156851904Y-20469580D02*
X156899523Y-20374342D01*
X156899523Y-20374342D02*
X156899523Y-19564819D01*
X157899523Y-20564819D02*
X157328095Y-20564819D01*
X157613809Y-20564819D02*
X157613809Y-19564819D01*
X157613809Y-19564819D02*
X157518571Y-19707676D01*
X157518571Y-19707676D02*
X157423333Y-19802914D01*
X157423333Y-19802914D02*
X157328095Y-19850533D01*
X88038095Y-72554819D02*
X88038095Y-71554819D01*
X88038095Y-72031009D02*
X88609523Y-72031009D01*
X88609523Y-72554819D02*
X88609523Y-71554819D01*
X89038095Y-71650057D02*
X89085714Y-71602438D01*
X89085714Y-71602438D02*
X89180952Y-71554819D01*
X89180952Y-71554819D02*
X89419047Y-71554819D01*
X89419047Y-71554819D02*
X89514285Y-71602438D01*
X89514285Y-71602438D02*
X89561904Y-71650057D01*
X89561904Y-71650057D02*
X89609523Y-71745295D01*
X89609523Y-71745295D02*
X89609523Y-71840533D01*
X89609523Y-71840533D02*
X89561904Y-71983390D01*
X89561904Y-71983390D02*
X88990476Y-72554819D01*
X88990476Y-72554819D02*
X89609523Y-72554819D01*
X161588095Y-18454819D02*
X161588095Y-17454819D01*
X161588095Y-17931009D02*
X162159523Y-17931009D01*
X162159523Y-18454819D02*
X162159523Y-17454819D01*
X162540476Y-17454819D02*
X163159523Y-17454819D01*
X163159523Y-17454819D02*
X162826190Y-17835771D01*
X162826190Y-17835771D02*
X162969047Y-17835771D01*
X162969047Y-17835771D02*
X163064285Y-17883390D01*
X163064285Y-17883390D02*
X163111904Y-17931009D01*
X163111904Y-17931009D02*
X163159523Y-18026247D01*
X163159523Y-18026247D02*
X163159523Y-18264342D01*
X163159523Y-18264342D02*
X163111904Y-18359580D01*
X163111904Y-18359580D02*
X163064285Y-18407200D01*
X163064285Y-18407200D02*
X162969047Y-18454819D01*
X162969047Y-18454819D02*
X162683333Y-18454819D01*
X162683333Y-18454819D02*
X162588095Y-18407200D01*
X162588095Y-18407200D02*
X162540476Y-18359580D01*
X103253333Y-51454819D02*
X102920000Y-50978628D01*
X102681905Y-51454819D02*
X102681905Y-50454819D01*
X102681905Y-50454819D02*
X103062857Y-50454819D01*
X103062857Y-50454819D02*
X103158095Y-50502438D01*
X103158095Y-50502438D02*
X103205714Y-50550057D01*
X103205714Y-50550057D02*
X103253333Y-50645295D01*
X103253333Y-50645295D02*
X103253333Y-50788152D01*
X103253333Y-50788152D02*
X103205714Y-50883390D01*
X103205714Y-50883390D02*
X103158095Y-50931009D01*
X103158095Y-50931009D02*
X103062857Y-50978628D01*
X103062857Y-50978628D02*
X102681905Y-50978628D01*
X103634286Y-50550057D02*
X103681905Y-50502438D01*
X103681905Y-50502438D02*
X103777143Y-50454819D01*
X103777143Y-50454819D02*
X104015238Y-50454819D01*
X104015238Y-50454819D02*
X104110476Y-50502438D01*
X104110476Y-50502438D02*
X104158095Y-50550057D01*
X104158095Y-50550057D02*
X104205714Y-50645295D01*
X104205714Y-50645295D02*
X104205714Y-50740533D01*
X104205714Y-50740533D02*
X104158095Y-50883390D01*
X104158095Y-50883390D02*
X103586667Y-51454819D01*
X103586667Y-51454819D02*
X104205714Y-51454819D01*
X88038095Y-18454819D02*
X88038095Y-17454819D01*
X88038095Y-17931009D02*
X88609523Y-17931009D01*
X88609523Y-18454819D02*
X88609523Y-17454819D01*
X89609523Y-18454819D02*
X89038095Y-18454819D01*
X89323809Y-18454819D02*
X89323809Y-17454819D01*
X89323809Y-17454819D02*
X89228571Y-17597676D01*
X89228571Y-17597676D02*
X89133333Y-17692914D01*
X89133333Y-17692914D02*
X89038095Y-17740533D01*
D11*
X113472580Y-34976666D02*
X112758295Y-34976666D01*
X112758295Y-34976666D02*
X112615438Y-34929047D01*
X112615438Y-34929047D02*
X112520200Y-34833809D01*
X112520200Y-34833809D02*
X112472580Y-34690952D01*
X112472580Y-34690952D02*
X112472580Y-34595714D01*
X112472580Y-35976666D02*
X112472580Y-35405238D01*
X112472580Y-35690952D02*
X113472580Y-35690952D01*
X113472580Y-35690952D02*
X113329723Y-35595714D01*
X113329723Y-35595714D02*
X113234485Y-35500476D01*
X113234485Y-35500476D02*
X113186866Y-35405238D01*
D10*
X103333333Y-47954819D02*
X103000000Y-47478628D01*
X102761905Y-47954819D02*
X102761905Y-46954819D01*
X102761905Y-46954819D02*
X103142857Y-46954819D01*
X103142857Y-46954819D02*
X103238095Y-47002438D01*
X103238095Y-47002438D02*
X103285714Y-47050057D01*
X103285714Y-47050057D02*
X103333333Y-47145295D01*
X103333333Y-47145295D02*
X103333333Y-47288152D01*
X103333333Y-47288152D02*
X103285714Y-47383390D01*
X103285714Y-47383390D02*
X103238095Y-47431009D01*
X103238095Y-47431009D02*
X103142857Y-47478628D01*
X103142857Y-47478628D02*
X102761905Y-47478628D01*
X104285714Y-47954819D02*
X103714286Y-47954819D01*
X104000000Y-47954819D02*
X104000000Y-46954819D01*
X104000000Y-46954819D02*
X103904762Y-47097676D01*
X103904762Y-47097676D02*
X103809524Y-47192914D01*
X103809524Y-47192914D02*
X103714286Y-47240533D01*
D12*
%TO.C,U4*%
X116920000Y-39020000D02*
X116920000Y-26260000D01*
X116920000Y-41620000D02*
X116920000Y-40290000D01*
X118250000Y-41620000D02*
X116920000Y-41620000D01*
X119580000Y-26260000D02*
X116920000Y-26260000D01*
X119580000Y-39020000D02*
X116920000Y-39020000D01*
X119580000Y-39020000D02*
X119580000Y-26260000D01*
%TO.C,U2*%
X93120000Y-57500000D02*
X93120000Y-63500000D01*
X93120000Y-63500000D02*
X93480000Y-63500000D01*
X93120000Y-69499999D02*
X93120000Y-75499999D01*
X93120000Y-75499999D02*
X153740000Y-75500000D01*
X93480000Y-63500000D02*
X93480000Y-69499999D01*
X93480000Y-69499999D02*
X93120000Y-69499999D01*
X153740000Y-57500001D02*
X93120000Y-57500000D01*
X153740000Y-75500000D02*
X153740000Y-57500001D01*
%TO.C,U1*%
X132390000Y-16880000D02*
X132390000Y-49210000D01*
X134510000Y-51340000D02*
X156120000Y-51340000D01*
X155710000Y-16880000D02*
X132390000Y-16880000D01*
X155710000Y-23780000D02*
X155710000Y-16880000D01*
X158250000Y-23780000D02*
X155710000Y-23780000D01*
X158250000Y-23780000D02*
X158250000Y-49210000D01*
X134520000Y-51340000D02*
G75*
G02*
X132390000Y-49210000I0J2130000D01*
G01*
X158250000Y-49210000D02*
G75*
G02*
X156120000Y-51340000I-2130002J2D01*
G01*
D10*
X159290000Y-43635000D02*
X158655000Y-43000000D01*
X159290000Y-42365000D01*
X159290000Y-43635000D01*
G36*
X159290000Y-43635000D02*
G01*
X158655000Y-43000000D01*
X159290000Y-42365000D01*
X159290000Y-43635000D01*
G37*
D12*
%TO.C,R2*%
X99380000Y-51000000D02*
X100150000Y-51000000D01*
X107460000Y-51000000D02*
X106690000Y-51000000D01*
X106690000Y-52370000D02*
X100150000Y-52370000D01*
X100150000Y-49630000D01*
X106690000Y-49630000D01*
X106690000Y-52370000D01*
%TO.C,J1*%
D11*
X104430000Y-27610000D02*
X99430000Y-27610000D01*
X99430000Y-43010000D01*
X104430000Y-43010000D01*
X104430000Y-27610000D01*
X108430000Y-26560000D02*
X86930000Y-26560000D01*
X86930000Y-44060000D01*
X108430000Y-44060000D01*
X108430000Y-26560000D01*
D12*
%TO.C,R1*%
X99460000Y-47500000D02*
X100230000Y-47500000D01*
X107540000Y-47500000D02*
X106770000Y-47500000D01*
X106770000Y-48870000D02*
X100230000Y-48870000D01*
X100230000Y-46130000D01*
X106770000Y-46130000D01*
X106770000Y-48870000D01*
%TD*%
%LPC*%
D13*
%TO.C,U4*%
X118250000Y-40290000D03*
D14*
X118250000Y-37750000D03*
X118250000Y-35210000D03*
X118250000Y-32670000D03*
X118250000Y-30130000D03*
X118250000Y-27590000D03*
%TD*%
D15*
%TO.C,H4*%
X162250000Y-75000000D03*
%TD*%
D16*
%TO.C,U2*%
X94220000Y-74000000D03*
X96760000Y-74000000D03*
X99300000Y-74000000D03*
X101840000Y-74000000D03*
X104380000Y-74000000D03*
X106920000Y-74000000D03*
X109460000Y-74000000D03*
X112000000Y-74000000D03*
X114540000Y-74000000D03*
X117080000Y-74000000D03*
X119620000Y-74000000D03*
X122160000Y-74000000D03*
X124700000Y-74000000D03*
X127240000Y-74000000D03*
X129780000Y-74000000D03*
X132320000Y-74000000D03*
X134860000Y-74000000D03*
X137400000Y-74000000D03*
X139940000Y-74000000D03*
X142480000Y-74000000D03*
X145020000Y-74000000D03*
X147560000Y-74000000D03*
X150100000Y-74000000D03*
X152640000Y-74000000D03*
X152640000Y-59000000D03*
X150100000Y-59000000D03*
X147560000Y-59000000D03*
X145020000Y-59000000D03*
X142480000Y-59000000D03*
X139940000Y-59000000D03*
X137400000Y-59000000D03*
X134860000Y-59000000D03*
X132320000Y-59000000D03*
X129780000Y-59000000D03*
X127240000Y-59000000D03*
X124700000Y-59000000D03*
X122160000Y-59000000D03*
X119620000Y-59000000D03*
X117080000Y-59000000D03*
X114540000Y-59000000D03*
X112000000Y-59000000D03*
X109460000Y-59000000D03*
X106920000Y-59000000D03*
X104380000Y-59000000D03*
X101840000Y-59000000D03*
X99300000Y-59000000D03*
X96760000Y-59000000D03*
X94220000Y-59000000D03*
%TD*%
D17*
%TO.C,U1*%
X156750000Y-43000000D03*
D18*
X156750000Y-40460000D03*
X156750000Y-37920000D03*
X156750000Y-35380000D03*
X156750000Y-32840000D03*
X156750000Y-30300000D03*
X156750000Y-27760000D03*
X156750000Y-25220000D03*
X133890000Y-25220000D03*
X133890000Y-27760000D03*
X133890000Y-30300000D03*
X133890000Y-32840000D03*
X133890000Y-35380000D03*
X133890000Y-37920000D03*
X133890000Y-40460000D03*
X133890000Y-43000000D03*
%TD*%
D15*
%TO.C,H2*%
X88800000Y-75000000D03*
%TD*%
%TO.C,H3*%
X162250000Y-15000000D03*
%TD*%
D19*
%TO.C,R2*%
X108500000Y-51000000D03*
X98340000Y-51000000D03*
%TD*%
D15*
%TO.C,H1*%
X88800000Y-15000000D03*
%TD*%
D17*
%TO.C,J1*%
X100700000Y-41660000D03*
D20*
X100700000Y-39120000D03*
X100700000Y-36580000D03*
X100700000Y-34040000D03*
X100700000Y-31500000D03*
X100700000Y-28960000D03*
X103240000Y-28960000D03*
X103240000Y-31500000D03*
X103240000Y-34040000D03*
X103240000Y-36580000D03*
X103240000Y-39120000D03*
X103240000Y-41660000D03*
%TD*%
D19*
%TO.C,R1*%
X108580000Y-47500000D03*
X98420000Y-47500000D03*
%TD*%
%LPD*%
M02*
